<ttFont>
          <CharString index="0">
            -107 callgsubr
            365 vlineto
            -92 33 -8 -8 rlineto
            return
          </CharString>
          <CharString index="1">
            380 568 rmoveto
            -49 vlineto
            61 -11 rlineto
            12 -2 5 -6 callgsubr
            -282 vlineto
            -99 -32 -64 -93 -85 -38 55 109 vhcurveto
            280 vlineto
            12 6 8 12 2 vhcurveto
            60 12 rlineto
            49 -255 -49 vlineto
            38 -10 rlineto
            11 -3 296 callgsubr
            -271 vlineto
            -157 72 -68 154 136 84 61 158 vhcurveto
            -40 callsubr
            vlineto
            return
          </CharString>
          <CharString index="2">
            -49 hlineto
            -62 callsubr
            -6 callgsubr
            -407 115 callsubr
            return
          </CharString>
          <CharString index="3">
            303 568 rmoveto
            -268 -105 callsubr
            268 47 vlineto
            -57 11 167 callsubr
            13 vvcurveto
            406 vlineto
            12 5 60 callsubr
            return
          </CharString>
          <CharString index="4">
            365 callsubr
            24 hhcurveto
            return
          </CharString>
          <CharString index="5">
            vlineto
            -103 callsubr
            return
          </CharString>
          <CharString index="6">
            281 -11 rmoveto
            168 95 112 193 176 -77 109 -167 -167 -95 -111 -194 -176 77 -109 166 hvcurveto
            11 538 rmoveto
            82 39 -72 -167 -173 -44 -74 -80 -81 -40 74 166 172 44 74 80 hvcurveto
            return
          </CharString>
          <CharString index="7">
            44 vlineto
            -37 5 rlineto
            -13 1 -7 6 15 296 callsubr
            104 -49 53 -111 -92 -62 -36 -61 -22 vhcurveto
            26 -24 rlineto
            31 33 39 14 45 hhcurveto
            54 29 -22 -64 hvcurveto
            -44 vlineto
            -77 -5 rlineto
            -82 -5 -79 -34 -81 vvcurveto
            return
          </CharString>
          <CharString index="8">
            rmoveto
            43 1 -28 30 -37 hhcurveto
            -28 -22 -20 -26 -19 11 -9 8 -8 hvcurveto
            7 -4 9 -6 -15 vvcurveto
            -17 -16 -18 -17 -13 vhcurveto
            25 -28 47 22 39 38 1 50 rlinecurve
            endchar
          </CharString>
          <CharString index="9">
            hlineto
            -34 -53 rlineto
            -9 return
          </CharString>
          <CharString index="10">
            -4 -84 callsubr
            return
          </CharString>
          <CharString index="11">
            -27 23 25 -10 24 272 callsubr
            return
          </CharString>
          <CharString index="12">
            rrcurveto
            -96 callsubr
            return
          </CharString>
          <CharString index="13">
            515 8 rmoveto
            226 vlineto
            39 6 rlineto
            52 -233 -52 vlineto
            80 -8 rlineto
            -151 vlineto
            -18 -23 -30 -9 -35 hhcurveto
            -104 -33 86 139 174 51 75 90 32 23 -8 -11 15 hvcurveto
            10 -7 5 -6 4 -15 19 -80 rcurveline
            72 hlineto
            6 49 4 48 -3 46 rrcurveto
            22 -49 -66 12 -64 hhcurveto
            -179 -108 -96 -204 -178 83 -111 155 68 51 23 34 33 hvcurveto
            return
          </CharString>
          <CharString index="14">
            573 508 rmoveto
            52 11 rlineto
            49 -216 -49 vlineto
            60 243 callgsubr
            -12 vvcurveto
            -325 vlineto
            -256 407 -72 callsubr
            12 vvcurveto
            355 vlineto
            271 -434 rlineto
            106 486 hlineto
            12 6 7 12 3 vhcurveto
            return
          </CharString>
          <CharString index="15">
            44 vlineto
            -38 5 rlineto
            -12 1 -7 5 16 vvcurveto
            331 vlineto
            -15 15 rlineto
            -49 -64 -6 -12 -49 hvcurveto
            -48 vlineto
            46 -9 rlineto
            11 -2 6 -6 callgsubr
            return
          </CharString>
          <CharString index="16">
            -21 158 callsubr
            hintmask 1001101101111100
            -59 callsubr
            hintmask 1101110101111100
            -103 -59 -40 -50 -23 -25 9 17 -23 vhcurveto
            69 28 52 56 68 vvcurveto
            -81 callgsubr
            hvcurveto
            hintmask 1010101101111100
            -35 callgsubr
            hintmask 1101101101111100
            7 callgsubr
            hintmask 1001110101111100
            -80 callgsubr
            -89 callgsubr
            hintmask 1001101101111100
            -12 callsubr
            hintmask 1001110101111100
            17 callsubr
            hintmask 1001101101111100
            -100 callgsubr
            hintmask 1001101110111100
            return
          </CharString>
          <CharString index="17">
            24 -78 rlineto
            7 30 18 3 17 hhcurveto
            41 30 -18 -31 24 hvcurveto
            62 -83 -1 -1 -91 54 rlineto
            23 -38 -39 12 -40 hhcurveto
            -49 -36 -19 -25 -36 hvcurveto
            42 -73 rlineto
            22 39 26 10 35 hhcurveto
            22 26 -4 -10 25 hvcurveto
            155 -61 35 41 -84 148 rlineto
            return
          </CharString>
          <CharString index="18">
            24 callsubr
            -426 -105 callsubr
            return
          </CharString>
          <CharString index="19">
            24 -82 callgsubr
            return
          </CharString>
          <CharString index="20">
            -84 callgsubr
            55 vhcurveto
            return
          </CharString>
          <CharString index="21">
            rmoveto
            35 -22 22 -33 -35 -22 -22 -35 -35 22 -23 35 33 22 23 35 vhcurveto
            171 hmoveto
            35 -21 22 -34 -34 -23 -22 -35 -35 23 -23 34 34 21 320 callsubr
          </CharString>
          <CharString index="22">
            rmoveto
            -51 73 -186 -122 20 -40 71 21 96 32 50 36 rlinecurve
            return
          </CharString>
          <CharString index="23">
            -7 -4 hhcurveto
            -7 return
          </CharString>
          <CharString index="24">
            rmoveto
            70 40 72 53 34 44 -65 60 rcurveline
            -141 -162 rlineto
            endchar
          </CharString>
          <CharString index="25">
            rmoveto
            -48 -1 -65 -6 -48 -14 rrcurveto
            -48 vlineto
            47 -8 rlineto
            11 -2 6 -6 callgsubr
            -291 vlineto
            -92 -23 -42 -86 -47 vhcurveto
            21 -48 53 14 51 19 36 30 rlinecurve
            41 34 19 43 94 vvcurveto
            370 vlineto
            return
          </CharString>
          <CharString index="26">
            335 callsubr
            -77 callgsubr
            return
          </CharString>
          <CharString index="27">
            24 42 rmoveto
            20 -42 rlineto
            343 hlineto
            6 46 1 49 -4 47 -52 6 rcurveline
            -25 -78 -3 -11 -7 -4 -13 -2 rlinecurve
            -4 -20 -25 -1 -24 hhcurveto
            -59 hlineto
            235 324 -19 42 rlineto
            -329 hlineto
            -4 -43 2 -52 6 -47 rrcurveto
            53 hlineto
            17 71 4 14 7 4 12 2 rlinecurve
            2 15 22 1 20 hhcurveto
            59 hlineto
            return
          </CharString>
          <CharString index="28">
            rmoveto
            -12 10 -10 8 11 vvcurveto
            8 5 10 21 22 vhcurveto
            78 85 -74 68 rlineto
            -13 hlineto
            -75 -91 rlineto
            -34 -40 -7 -23 -18 vvcurveto
            -28 16 -15 28 -21 vhcurveto
            -3 callgsubr
            81 -62 vhcurveto
            -38 -31 rlineto
            -103 60 91 -69 107 hhcurveto
            91 62 51 78 76 -61 51 -65 50 hvcurveto
            return
          </CharString>
          <CharString index="29">
            -11 -54 callgsubr
            return
          </CharString>
          <CharString index="30">
            -82 15 55 -55 75 hhcurveto
            81 43 65 68 1 hvcurveto
            -58 12 -10 -5 rlineto
            -47 -5 -28 -29 -39 hhcurveto
            -43 -31 28 58 -17 hvcurveto
            127 7 rmoveto
            27 -19 22 -24 -24 -17 -19 -26 -26 20 -20 24 24 16 18 24 vhcurveto
            endchar
          </CharString>
          <CharString index="31">
            -3 callgsubr
            84 -64 vhcurveto
            -38 -31 rlineto
            -105 60 92 -70 108 hhcurveto
            91 62 51 78 return
          </CharString>
          <CharString index="32">
            rlineto
            26 -1 19 -10 -22 vvcurveto
            -26 -26 -19 -49 -4 vhcurveto
            6 -39 rlineto
            -1 7 6 0 8 hhcurveto
            81 58 37 56 38 -28 25 -40 3 hvcurveto
            -13 hlineto
            return
          </CharString>
          <CharString index="33">
            rmoveto
            49 11 rlineto
            49 -260 -49 vlineto
            56 243 callgsubr
            -12 vvcurveto
            -365 vlineto
            -125 -17 -40 -95 -56 vhcurveto
            22 -49 rlineto
            174 54 35 63 169 vvcurveto
            349 vlineto
            12 6 7 12 3 vhcurveto
            return
          </CharString>
          <CharString index="34">
            vhcurveto
            28 -32 -44 21 -51 hhcurveto
            -47 -45 -18 -29 -34 hvcurveto
            59 -82 rlineto
            13 hlineto
            28 28 40 22 37 hhcurveto
            37 22 -21 -39 return
          </CharString>
          <CharString index="35">
            rlineto
            -196 -105 callsubr
            227 47 vlineto
            -66 281 callgsubr
            return
          </CharString>
          <CharString index="36">
            rmoveto
            37 -26 24 -39 -41 -26 -24 -37 -37 26 -24 41 39 26 24 37 vhcurveto
            return
          </CharString>
          <CharString index="37">
            rmoveto
            -41 24 rlineto
            -43 -26 -38 -18 -41 hhcurveto
            -44 -37 19 42 -24 hvcurveto
            -47 -24 rlineto
            -63 13 57 -52 78 hhcurveto
            75 58 50 65 17 hvcurveto
            return
          </CharString>
          <CharString index="38">
            rmoveto
            107 96 117 -95 38 35 -118 146 -73 -7 -107 -142 rlineto
            endchar
          </CharString>
          <CharString index="39">
            vhcurveto
            -27 23 24 -10 25 -67 callsubr
          </CharString>
          <CharString index="40">
            272 callsubr
            hintmask 10110000
            -107 callgsubr
            endchar
          </CharString>
          <CharString index="41">
            -148 rmoveto
            7 11 -42 78 rlineto
            -11 -19 -23 -7 -24 hhcurveto
            -39 -35 21 65 -16 hvcurveto
            -8 25 25 -3 25 hhcurveto
            96 70 50 81 54 -31 44 -51 28 hvcurveto
            hintmask 11111000
            35 26 18 33 36 vvcurveto
            48 -31 44 -35 28 vhcurveto
            29 -36 -42 14 -41 hhcurveto
            -38 -41 -11 -27 -37 hvcurveto
            50 -78 rlineto
            13 hlineto
            20 23 41 19 33 hhcurveto
            32 22 -16 -32 -48 -54 -41 -93 -12 hvcurveto
            -8 -9 33 -73 rlineto
            hintmask 11110100
            41 4 35 8 29 11 rrcurveto
            28 -19 12 -25 -25 vvcurveto
            -48 -44 -35 -63 -14 -15 1 5 -17 vhcurveto
            70 -7 -18 27 -32 hhcurveto
            -12 -15 -3 -18 -21 hvcurveto
            -6 -5 rlineto
            -22 -19 -6 -15 -15 vvcurveto
            -27 21 -27 67 -23 vhcurveto
            -121 9 58 -74 94 hhcurveto
            32 30 8 12 24 hvcurveto
            endchar
          </CharString>
          <CharString index="42">
            366 -148 rmoveto
            6 11 -42 78 rlineto
            -11 -19 -23 -7 -23 hhcurveto
            -39 -36 22 67 -15 hvcurveto
            -12 28 35 -5 29 hhcurveto
            100 64 52 69 return
          </CharString>
          <CharString index="43">
            186 409 rmoveto
            -18 15 -43 -1 -54 -7 -44 -13 7 callsubr
            257 47 vlineto
            -65 7 19 callgsubr
            -7 7 13 vvcurveto
            return
          </CharString>
          <CharString index="44">
            7 30 18 4 16 hhcurveto
            42 31 -18 -34 25 hvcurveto
            60 -80 -2 -2 -90 54 rlineto
            23 -37 -40 12 -40 hhcurveto
            -49 -36 -19 -24 -36 hvcurveto
            42 -74 rlineto
            22 39 27 11 34 hhcurveto
            22 27 -5 -11 27 hvcurveto
            160 -62 rlineto
            return
          </CharString>
          <CharString index="45">
            -36 callgsubr
            7 return
          </CharString>
          <CharString index="46">
            22 -71 callgsubr
            return
          </CharString>
          <CharString index="47">
            127 -6 52 -46 46 216 56 206 49 -5 -20 230 callsubr
            216 129 hintmask 10110110
            40 262 rmoveto
            70 hlineto
            hintmask 01110110
            -185 vlineto
            -10 -6 -7 -10 280 callsubr
            134 vlineto
            31 55 -5 -1 34 hvcurveto
            hintmask 10110110
            178 -3 106 109 202 vvcurveto
            184 -89 87 -186 vhcurveto
            hintmask 10101110
            -43 -39 -5 -49 hhcurveto
            -132 -49 hlineto
            59 -12 rlineto
            9 -2 6 -7 -9 vvcurveto
            -171 -70 vlineto
            189 -264 rmoveto
            208 105 56 -105 vlineto
            hintmask 10110110
            199 vlineto
            1 9 22 6 26 hhcurveto
            112 47 -85 -155 -175 -56 -61 -96 -2 hvcurveto
            hintmask 10101110
            -20 -28 2 6 -16 hvcurveto
            endchar
          </CharString>
          <CharString index="48">
            470 275 rmoveto
            53 -12 40 -11 27 vhcurveto
            -79 28 -9 -9 rlineto
            11 -38 6 -43 -32 vvcurveto
            return
          </CharString>
          <CharString index="49">
            60 14 282 callgsubr
            45 -11 10 -2 7 -5 5 -9 rlinecurve
            155 -271 rlineto
            -140 vlineto
            -12 -7 -6 -11 -2 vhcurveto
            -70 -14 rlineto
            -47 vlineto
            return
          </CharString>
          <CharString index="50">
            -34 11 -42 -29 vvcurveto
            -51 -30 -46 -50 -57 -9 57 41 80 32 52 55 43 vhcurveto
            13 vlineto
            -88 48 rlineto
            -66 -57 -28 -71 -64 vvcurveto
            -68 32 -54 39 -37 vhcurveto
            -33 36 49 -26 51 hhcurveto
            76 53 55 91 hvcurveto
            return
          </CharString>
          <CharString index="51">
            36 39 17 52 -18 callgsubr
            -80 -59 -44 -66 return
          </CharString>
          <CharString index="52">
            -12 83 95 76 274 -20 hstem
            78 87 153 91 vstem
            415 244 rmoveto
            18 -12 17 -27 19 vhcurveto
            -10 7 rlineto
            15 -22 -21 11 -21 hhcurveto
            -23 -19 -15 -26 -13 3 -13 7 -15 hvcurveto
            -5 -11 -11 -2 -12 hhcurveto
            -43 -28 33 44 70 66 36 79 8 hvcurveto
            8 10 -41 73 rlineto
            -109 -3 -90 -60 -92 vvcurveto
            -50 28 -47 36 -34 vhcurveto
            -35 35 50 -29 58 hhcurveto
            8 8 1 1 7 hvcurveto
            7 -12 3 -11 -12 vvcurveto
            -40 -37 -22 -50 -73 -59 48 75 -51 vhcurveto
            -37 -29 rlineto
            -107 50 94 -70 107 hhcurveto
            79 68 39 68 33 -16 31 -28 25 hvcurveto
            29 14 21 22 24 vvcurveto
            endchar
          </CharString>
          <CharString index="53">
            151 rmoveto
            71 -58 37 -84 40 vhcurveto
            hintmask 10011101
            -68 32 -49 18 45 vvcurveto
            31 22 23 47 25 21 -6 -10 12 vhcurveto
            hintmask 11000101
            9 -6 4 -7 1 -11 15 -67 rcurveline
            65 hlineto
            hintmask 10100011
            8 41 2 45 -3 42 -29 12 -39 9 -40 4 rrcurveto
            hintmask 10010011
            84 -66 vlineto
            hintmask 10101011
            -83 vlineto
            -108 -8 -53 -57 -70 vvcurveto
            -76 65 -36 72 -33 vhcurveto
            hintmask 10010101
            66 -31 50 -21 -46 vvcurveto
            -36 -28 -25 -48 -37 -28 14 13 -14 vhcurveto
            -7 6 -5 6 -2 11 -13 74 rcurveline
            -68 hlineto
            -6 -38 -4 -52 2 -45 32 -15 48 -16 55 -6 rrcurveto
            -84 65 83 vlineto
            121 8 50 69 67 vvcurveto
            endchar
          </CharString>
          <CharString index="54">
            -8 65 -64 60.5 return
          </CharString>
          <CharString index="55">
            40 20 32 return
          </CharString>
          <CharString index="56">
            116 callgsubr
            186 callgsubr
            hintmask 01011110
            -34 callsubr
            hintmask 10111110
            230 callgsubr
            hintmask 10011110
            -14 callgsubr
            hintmask 01111110
            -110 402 rlineto
            hintmask 01011110
            -33 callgsubr
            return
          </CharString>
          <CharString index="57">
            -37 callgsubr
            -43 -65 return
          </CharString>
          <CharString index="58">
            244 callgsubr
            9 -39 callgsubr
            return
          </CharString>
          <CharString index="59">
            -13 -97 callgsubr
            return
          </CharString>
          <CharString index="60">
            34 -53 callsubr
            370.5 -20 return
          </CharString>
          <CharString index="61">
            -78 callsubr
            119 110 callsubr
            95 99 hintmask 0110100010000000
            552 317 rmoveto
            hintmask 0111001010000000
            64 callgsubr
            hintmask 0110110110000000
            -57 callsubr
            hintmask 0111000110000000
            112 callgsubr
            return
          </CharString>
          <CharString index="62">
            122 rmoveto
            -84 79 -49 116 vhcurveto
            hintmask 11100100
            122 81 55 90 74 -56 38 -61 31 hvcurveto
            hintmask 11011000
            53 21 38 43 53 vvcurveto
            71 -69 47 -100 -108 -70 -55 -82 -58 36 -38 42 -27 vhcurveto
            hintmask 11101000
            -63 -21 -40 -49 -60 vvcurveto
            hintmask 11011000
            129 280 rmoveto
            36 26 24 42 45 30 -27 -51 -27 -10 -32 -31 -24 vhcurveto
            -57 28 -45 26 47 vvcurveto
            hintmask 11100100
            71 -362 rmoveto
            -51 -46 30 62 37 16 33 32 23 hvcurveto
            3 -2 4 -2 4 -2 rrcurveto
            63 -32 55 -23 -54 vvcurveto
            -39 -29 -31 -51 vhcurveto
            endchar
          </CharString>
          <CharString index="63">
            458 hmoveto
            10 53 6 78 -2 50 -64 8 rcurveline
            -35 -103 -3 -12 -7 -7 -10 -4 rlinecurve
            -5 -15 -25 -3 -31 hhcurveto
            -114 hlineto
            306 472 -18 42 rlineto
            -387 hlineto
            return
          </CharString>
          <CharString index="64">
            66 callgsubr
            10 -14 5 -16 -17 vvcurveto
            -41 -29 -27 -30 vhcurveto
            return
          </CharString>
          <CharString index="65">
            -62 8 -30 24 -32 vhcurveto
            -96 callsubr
            return
          </CharString>
          <CharString index="66">
            37 118 callsubr
          </CharString>
          <CharString index="67">
            277 vlineto
            11 5 8 12 3 vhcurveto
            41 10 rlineto
            49 return
          </CharString>
          <CharString index="68">
            332 rmoveto
            52 -32 48 -41 34 vhcurveto
            26 -33 -44 21 -52 hhcurveto
            -47 -44 -19 -28 -33 hvcurveto
            59 -82 rlineto
            13 hlineto
            28 28 41 22 37 hhcurveto
            38 23 -20 -39 -48 -44 -51 -73 -17 hvcurveto
            47 -10 -19 16 -23 hhcurveto
            -22 -18 -14 -25 -16 hvcurveto
            -7 -10 rlineto
            -15 -23 -7 -20 -15 vvcurveto
            -37 39 -16 54 vhcurveto
            3 3 0 3 hhcurveto
            -109 16 60 -65 94 hhcurveto
            29 37 7 12 35 hvcurveto
            5 13 -34 83 rlineto
            -11 -23 -35 -11 -30 hhcurveto
            -40 -46 21 65 -21 hvcurveto
            97 17 95 61 87 vvcurveto
            endchar
          </CharString>
          <CharString index="69">
            3 -11 -15 4 -13 hhcurveto
            -25 -25 -15 -25 -19 hvcurveto
            26 -29 -45 13 -56 hhcurveto
            -117 -71 -53 -97 -55 23 -44 53 -23 hvcurveto
            return
          </CharString>
          <CharString index="70">
            vvcurveto
            -51 -54 -24 -48 -51 -62 26 77 -61 vhcurveto
            -39 -30 rlineto
            -100 55 89 -55 103 hhcurveto
            return
          </CharString>
          <CharString index="71">
            194 callgsubr
            hstemhm
            215 122 5 198 hintmask 10110000
            22 callsubr
            hintmask 10101000
            -25 callsubr
            hintmask 11110000
            -111 212 rlineto
            hintmask 10110000
            -58 callsubr
            return
          </CharString>
          <CharString index="72">
            58 -62 rlineto
            11 hlineto
            213 callgsubr
            return
          </CharString>
          <CharString index="73">
            520 -3 rmoveto
            107 hlineto
            140 492 3 11 6 5 10 3 rlinecurve
            49 11 rlineto
            49 -198 -49 vlineto
            66 -14 rlineto
            return
          </CharString>
          <CharString index="74">
            77 371 77 hstem
            28 91 188 90 vstem
            463 72 rmoveto
            -59 77 rlineto
            -14 hlineto
            -52 -48 -67 -32 -69 hhcurveto
            -52 -35 20 39 49 56 20 74 26 hvcurveto
            50 19 98 34 82 vvcurveto
            40 -25 43 -35 29 vhcurveto
            29 -33 -43 18 -56 hhcurveto
            -48 -56 -15 -29 -42 hvcurveto
            50 -91 rlineto
            12 hlineto
            33 42 47 25 46 hhcurveto
            31 20 -13 -27 -48 -63 -21 -59 -22 hvcurveto
            -84 -31 -73 -32 -77 vvcurveto
            -44 24 -42 37 -31 vhcurveto
            -38 42 52 -22 72 hhcurveto
            75 79 28 56 54 hvcurveto
            return
          </CharString>
          <CharString index="75">
            -13 -58 hvcurveto
            -102 vlineto
            -2 -2 0 -2 hhcurveto
            -43 -19 -22 -26 -25 15 -20 24 -24 hvcurveto
            19 -19 rlineto
            -26 24 17 -10 23 hhcurveto
            28 20 21 35 hvcurveto
            36 vlineto
            return
          </CharString>
          <CharString index="76">
            179 callsubr
            -22 hhcurveto
            -41 -35 24 65 -16 hvcurveto
            -12 30 37 -5 28 hhcurveto
            101 63 52 70 46 -28 47 -61 43 hvcurveto
            86 45 rlineto
            13 vlineto
            -54 67 -118 -63 rlineto
            -33 26 -7 17 16 30 callgsubr
            -45 31 -34 59 -39 hvcurveto
            -73 -39 rlineto
            -14 vlineto
            52 -66 106 56 rlineto
            35 -30 8 -26 -21 vvcurveto
            -52 -53 -26 -53 vhcurveto
            return
          </CharString>
          <CharString index="77">
            hhcurveto
            -27 -11 14 19 24 20 22 38 19 hvcurveto
            22 12 -37 66 rlineto
            -10 -28 -33 -8 -30 hhcurveto
            -23 -21 4 6 -19 hvcurveto
            61 36 33 37 47 vvcurveto
            43 -28 38 -32 26 vhcurveto
            25 -29 -36 16 -37 hhcurveto
            -64 -50 -49 -69 -42 18 -42 29 -36 hvcurveto
            -29 -13 -32 -13 -35 -13 39 -79 rcurveline
            50 20 44 19 37 18 25 -14 28 -9 29 -5 rrcurveto
            -2 vlineto
            -131 -62 41 -74 105 57 8 -21 15 -21 17 -15 rlinecurve
            -26 28 37 -14 37 hhcurveto
            return
          </CharString>
          <CharString index="78">
            -233 -78 callsubr
            699 79 95 callgsubr
            444 rmoveto
            160 75 84 218 179 209 -55 -99 212 vhcurveto
            19 26 rlineto
            120 -165 -251 87 -234 hhcurveto
            -229 -133 -87 -213 hvcurveto
            -317 vlineto
            -61 8 -32 24 -31 -68 callsubr
          </CharString>
          <CharString index="79">
            rmoveto
            -65 -60 35 -45 66 -52 68 -40 rlinecurve
            32 37 rlineto
            endchar
          </CharString>
          <CharString index="80">
            -203 0 226 callsubr
            return
          </CharString>
          <CharString index="81">
            41 rmoveto
            -107 callgsubr
            return
          </CharString>
          <CharString index="82">
            139 273 4 9 8 4 9 3 rlinecurve
            43 10 rlineto
            49 -198 -49 vlineto
            66 -14 -105 -212 rlineto
            return
          </CharString>
          <CharString index="83">
            rmoveto
            44 37 57 68 27 47 -73 42 rcurveline
            -91 -166 rlineto
            187 -28 rmoveto
            46 35 60 65 30 47 -70 45 rcurveline
            -101 -162 rlineto
            endchar
          </CharString>
          <CharString index="84">
            -108 -95 -115 94 -38 -35 117 -146 73 7 rlineto
            return
          </CharString>
          <CharString index="85">
            26 0 55 334 180 -51 51 hstemhm
            20 454 hintmask 10110000
            -44 callsubr
            hintmask 11010000
            -10 -56 -4 -65 3 -59 rrcurveto
            66 hlineto
            hintmask 10110000
            13 callgsubr
            return
          </CharString>
          <CharString index="86">
            -51 -34 -5 -43 hhcurveto
            -131 -49 hlineto
            -62 callsubr
            -7 -12 vvcurveto
            -408 vlineto
            -12 -7 -7 -11 -2 vhcurveto
            -8 callgsubr
            vlineto
            return
          </CharString>
          <CharString index="87">
            -7 -22 callgsubr
            return
          </CharString>
          <CharString index="88">
            214 rmoveto
            hintmask 10101000
            -106 50 -85 101 -17 vhcurveto
            -82 65 80 vlineto
            67 8 53 33 21 46 -28 27 rcurveline
            -22 -20 -32 -22 -49 hhcurveto
            hintmask 10111000
            -69 -37 56 104 99 37 52 52 19 17 -6 -9 10 hvcurveto
            7 -6 5 -8 3 -16 17 -69 rcurveline
            58 hlineto
            hintmask 11000100
            8 42 3 46 -3 46 -24 13 -39 12 -41 5 rrcurveto
            hintmask 10100100
            79 -66 -79 vlineto
            hintmask 10111000
            -111 -12 -74 -78 -131 vvcurveto
            endchar
          </CharString>
          <CharString index="89">
            450 hmoveto
            47 vlineto
            -85 14 19 callgsubr
            -6 6 12 vvcurveto
            436 34 vlineto
            24 21 -3 -4 13 hvcurveto
            10 -4 5 -6 2 -10 rrcurveto
            return
          </CharString>
          <CharString index="90">
            -4 -18 hhcurveto
            -30 -29 10 21 -33 hvcurveto
            -143 88 -28 -40 155 -117 rlineto
            -31 41 43 -22 53 hhcurveto
            42 43 14 30 42 hvcurveto
            return
          </CharString>
          <CharString index="91">
            vlineto
            -5 -5 0 -5 hhcurveto
            -43 -16 -25 -25 -22 13 -19 25 -25 hvcurveto
            15 -15 rlineto
            -28 28 18 -10 20 hhcurveto
            29 22 20 36 hvcurveto
            33 return
          </CharString>
          <CharString index="92">
            -35 callsubr
            9 hhcurveto
            8 0 -15 -18 hvcurveto
            -105 vlineto
            -61 26 -48 39 -32 vhcurveto
            -29 35 43 -16 40 hhcurveto
            return
          </CharString>
          <CharString index="93">
            76 8 147 -126 71 165 -20 32 79 -8 -20 return
          </CharString>
          <CharString index="94">
            -21 -30 -35 -23 -47 -14 rrcurveto
            32 -12 -18 24 -27 hhcurveto
            -23 -16 -17 -19 -12 hvcurveto
            -6 -12 rlineto
            -11 -18 -5 -16 -14 vvcurveto
            -33 27 -17 55 7 7 0 1 8 vhcurveto
            -84 29 60 -42 82 hhcurveto
            34 34 7 10 25 hvcurveto
            5 13 -33 79 rlineto
            -14 -31 -33 -9 -29 hhcurveto
            -36 -33 15 34 -21 hvcurveto
            93 24 92 68 101 vvcurveto
            58 -31 54 -45 37 vhcurveto
            27 -33 -45 21 -48 hhcurveto
            return
          </CharString>
          <CharString index="95">
            4 0 4 4 vvcurveto
            562 -234 rmoveto
            -107 callgsubr
            return
          </CharString>
          <CharString index="96">
            43 7 41 30 48 vvcurveto
            54 -54 36 -70 -51 -54 -19 -45 -21 vhcurveto
            21 -23 rlineto
            20 23 27 8 27 hhcurveto
            35 29 -15 -33 return
          </CharString>
          <CharString index="97">
            -13 -32 -30 -7 -32 hhcurveto
            -22 -31 7 24 -38 hvcurveto
            -143 88 -28 -40 rlineto
            return
          </CharString>
          <CharString index="98">
            hvcurveto
            11 -5 7 -6 3 -12 18 -68 rcurveline
            return
          </CharString>
          <CharString index="99">
            251 hmoveto
            47 vlineto
            -40 7 -63 callgsubr
            59 vlineto
            55 55 8 -14 8 -16 9 -17 rlinecurve
            35 -75 rlineto
            -37 18 13 -31 23 hhcurveto
            138 47 hlineto
            -42 11 -12 3 -7 4 -6 14 rlinecurve
            -64 116 -16 30 -13 21 -16 20 rlinecurve
            76 76 11 10 7 3 19 3 rlinecurve
            42 11 rlineto
            44 -211 -44 vlineto
            68 -12 -143 -154 rlineto
            return
          </CharString>
          <CharString index="100">
            vlineto
            -62 8 -30 24 -32 vhcurveto
            -27 23 25 -10 24 -67 callsubr
          </CharString>
          <CharString index="101">
            270 78 callsubr
            hintmask 11011000
            -11 callsubr
            hvcurveto
            hintmask 10111000
            -34 -28 -24 -60 vhcurveto
            -10 hlineto
            hintmask 11010100
            -43 38 vlineto
            112 callsubr
            endchar
          </CharString>
          <CharString index="102">
            -13 -24 2 7 -21 hvcurveto
            73 -10 -21 26 -27 hhcurveto
            -13 -17 -6 -15 -17 hvcurveto
            -6 -6 rlineto
            -18 -14 -11 -15 -19 vvcurveto
            -26 21 -27 66 -26 vhcurveto
            -112 10 51 -80 99 hhcurveto
            27 30 5 14 29 hvcurveto
            6 11 -42 77 rlineto
            -10 -19 -22 -7 -24 hhcurveto
            -42 -32 26 61 -13 hvcurveto
            -9 26 31 -5 29 hhcurveto
            89 70 41 77 80 -76 37 -62 19 hvcurveto
            return
          </CharString>
          <CharString index="103">
            rmoveto
            -53 -72 48 -37 91 -35 70 -24 rlinecurve
            23 41 rlineto
            return
          </CharString>
          <CharString index="104">
            -13 11 -10 8 12 vvcurveto
            8 5 15 16 19 vhcurveto
            40 return
          </CharString>
          <CharString index="105">
            -74 429 rmoveto
            71 25 25 42 46 20 -28 -69 -65 -19 -32 -46 -46 -22 31 67 vhcurveto
            return
          </CharString>
          <CharString index="106">
            58 -62 rlineto
            11 hlineto
            35 25 15 18 9 hhcurveto
            8 0 -15 -18 hvcurveto
            -66 vlineto
            8 -87 -101 9 -80 hhcurveto
            -48 -18 -26 -26 -18 8 -17 18 -22 hvcurveto
            28 -32 rlineto
            -28 25 16 -11 21 hhcurveto
            29 23 22 39 hvcurveto
            36 166 -47 vlineto
            -4 -4 0 -4 hhcurveto
            -45 -20 -21 -26 -24 16 -18 24 -25 hvcurveto
            20 -20 rlineto
            -25 27 18 -11 24 hhcurveto
            return
          </CharString>
          <CharString index="107">
            50 196 callgsubr
            19 hhcurveto
            21 12 -12 -20 -30 -25 -30 -49 -21 hvcurveto
            -9 -22 -23 -5 -20 hhcurveto
            return
          </CharString>
          <CharString index="108">
            hhcurveto
            -34 -34 15 29 -14 hvcurveto
            90 22 59 53 70 vvcurveto
            42 -22 41 -36 29 vhcurveto
            23 -27 -37 17 -38 hhcurveto
            -61 -44 -40 -51 -50 41 -33 47 -11 hvcurveto
            24 29 rlineto
            -14 11 -7 14 15 vvcurveto
            27 21 17 25 25 17 -17 -27 -45 -52 -45 -86 -22 vhcurveto
            -15 -39 11 -29 19 -29 20 -22 rlinecurve
            37 -43 43 -21 50 -4 rrcurveto
            -3 vlineto
            return
          </CharString>
          <CharString index="109">
            53 -32 49 -40 33 vhcurveto
            26 -32 -43 21 -49 hhcurveto
            -46 -43 -18 -29 -33 hvcurveto
            59 -82 rlineto
            13 hlineto
            30 27 39 21 35 hhcurveto
            36 22 -23 -38 -49 -35 -51 -69 -22 hvcurveto
            46 -10 -18 14 -23 hhcurveto
            -22 -18 -13 -25 -17 hvcurveto
            -6 -10 rlineto
            -15 -23 -7 -20 -16 vvcurveto
            -37 40 -16 51 vhcurveto
            4 4 0 4 hhcurveto
            -103 16 59 -61 90 hhcurveto
            return
          </CharString>
          <CharString index="110">
            44 -23 40 -29 26 vhcurveto
            31 -33 -38 13 -37 hhcurveto
            -66 -53 -46 -65 -53 36 -45 53 -34 hvcurveto
            -39 -23 -47 -20 -45 -18 45 -81 rcurveline
            78 33 63 31 46 33 42 -13 44 -7 43 -2 rrcurveto
            -1 vlineto
            -159 -87 rlineto
            -58 -31 -18 -26 -30 vvcurveto
            -28 20 -20 34 -11 vhcurveto
            10 -2 rlineto
            -4 11 26 -5 15 hhcurveto
            32 21 21 26 return
          </CharString>
          <CharString index="111">
            hhcurveto
            -31 -29 14 28 -13 hvcurveto
            90 23 59 369 callsubr
            -27 -37 17 -38 hhcurveto
            -61 -44 -41 -52 -51 41 -34 47 -11 hvcurveto
            24 29 rlineto
            -14 12 -7 14 16 vvcurveto
            28 21 18 25 25 17 -17 -27 -47 -52 -46 -86 -23 vhcurveto
            -15 -39 11 -31 20 -30 19 -22 rlinecurve
            -51 42 50 -20 57 hhcurveto
            return
          </CharString>
          <CharString index="112">
            -65 callsubr
            51 -35 52 -69 43 hvcurveto
            98 99 rlineto
            37 36 44 32 42 hhcurveto
            27 18 -15 -24 -34 -33 -31 -58 -14 hvcurveto
            -16 -45 12 -27 16 -30 18 -22 rlinecurve
            -41 32 48 -34 69 hhcurveto
            return
          </CharString>
          <CharString index="113">
            0 -55 callgsubr
            302.5 70 return
          </CharString>
          <CharString index="114">
            -97 callgsubr
            -12 -2 vhcurveto
            -41 9 callsubr
            return
          </CharString>
          <CharString index="115">
            hmoveto
            10 48 5 62 51 vvcurveto
            -59 7 -31 -69 -4 -11 -7 -5 -15 -3 rlinecurve
            -4 -16 -32 -3 -32 hhcurveto
            -89 hlineto
            181 115 78 78 97 vvcurveto
            93 -70 56 -92 -94 -61 -55 -64 -25 vhcurveto
            36 -31 rlineto
            41 29 34 22 39 hhcurveto
            44 37 -27 -54 -70 -61 -61 -174 -152 hvcurveto
            21 -61 rlineto
            endchar
          </CharString>
          <CharString index="116">
            -7 rlineto
            -47 return
          </CharString>
          <CharString index="117">
            355 -115 rmoveto
            6 11 -42 78 rlineto
            -10 -19 -22 -8 -24 hhcurveto
            -42 -32 26 61 -13 hvcurveto
            -9 26 31 -5 31 hhcurveto
            87 70 42 78 81 -76 35 -62 21 hvcurveto
            -34 11 -28 9 -19 15 rrcurveto
            -13 10 -6 13 17 vvcurveto
            34 26 34 43 47 27 -42 -39 27 vhcurveto
            34 -48 37 -52 73 -10 rrcurveto
            return
          </CharString>
          <CharString index="118">
            55 -29 30 -38 -33 -23 -23 -32 -24 13 -15 12 -9 vhcurveto
            12 -7 9 -2 -18 vvcurveto
            -30 -26 -32 -30 -27 vhcurveto
            20 -25 rlineto
            59 30 54 60 69 vvcurveto
            return
          </CharString>
          <CharString index="119">
            -60 31 -34 44 36 26 25 36 26 -14 17 -15 10 vhcurveto
            -13 8 -10 3 20 vvcurveto
            32 29 37 35 28 vhcurveto
            -23 29 rlineto
            -66 -34 -60 -65 -78 vvcurveto
            return
          </CharString>
          <CharString index="120">
            -2 13 vhcurveto
            19 29 36 7 26 hhcurveto
            51 23 -30 -42 -55 -39 -52 -66 -34 hvcurveto
            -4 -12 59 -70 rlineto
            return
          </CharString>
          <CharString index="121">
            37 -27 25 -40 -40 -27 -25 -37 -38 27 -25 40 40 27 25 38 vhcurveto
            endchar
          </CharString>
          <CharString index="122">
            1 -6 7 12 vvcurveto
            275 return
          </CharString>
          <CharString index="123">
            -55 -44 -52 -71 -18 150 callsubr
            5 0 4 hhcurveto
            -106 15 55 -58 89 hhcurveto
            29 36 6 13 31 hvcurveto
            6 12 -34 80 rlineto
            -11 -25 -29 -7 -24 hhcurveto
            -41 -42 18 59 -20 hvcurveto
            return
          </CharString>
          <CharString index="124">
            365 vlineto
            -92 33 -8 -8 rlineto
            -356 -102 callsubr
            return
          </CharString>
          <CharString index="125">
            91 0 47 122 56 252 93 0 -20 return
          </CharString>
          <CharString index="126">
            -40 -26 -24 -37 -45 vvcurveto
            -51 31 -45 39 -32 vhcurveto
            -32 38 54 -24 67 hhcurveto
            159 113 138 165 131 -71 91 -87 -65 -53 -50 -72 -80 65 -65 110 1 hvcurveto
            -108 -32 -87 -75 -100 hhcurveto
            -57 -32 25 44 63 65 33 72 4 hvcurveto
            9 9 -42 78 rlineto
            return
          </CharString>
          <CharString index="127">
            95 36 56 22 58 vvcurveto
            39 -27 36 -38 25 vhcurveto
            20 -29 -39 15 -51 hhcurveto
            -51 -52 -10 -26 -43 hvcurveto
            47 -86 rlineto
            13 hlineto
            30 40 48 18 43 hhcurveto
            28 17 -9 -18 -29 -46 -17 -74 -28 hvcurveto
            -93 -34 -65 -45 -76 vvcurveto
            -53 31 -48 39 -33 vhcurveto
            -36 43 59 -25 81 hhcurveto
            return
          </CharString>
          <CharString index="128">
            10 19 22 18 vhcurveto
            14 vlineto
            -88 39 rlineto
            -28 -30 -11 -25 -28 vvcurveto
            -44 29 -38 46 -25 vhcurveto
            return
          </CharString>
          <CharString index="129">
            424 hmoveto
            47 vlineto
            -69 14 19 callgsubr
            -6 6 12 vvcurveto
            139 vlineto
            return
          </CharString>
          <CharString index="130">
            60 43 40 58 22 -6 22 -14 19 hvcurveto
            2 4 return
          </CharString>
          <CharString index="131">
            4 52 0 49 -5 49 rrcurveto
            return
          </CharString>
          <CharString index="132">
            vlineto
            -91 33 -9 -8 rlineto
            -175 vlineto
            67 -76 -40 30 -57 275 callsubr
            59 -82 rlineto
            114 callgsubr
            25 hhcurveto
            return
          </CharString>
          <CharString index="133">
            -35 callsubr
            10 hhcurveto
            6 2 -10 -23 hvcurveto
            -118 vlineto
            -54 21 -45 34 -33 vhcurveto
            -34 35 50 -24 52 hhcurveto
            return
          </CharString>
          <CharString index="134">
            89 393 rmoveto
            22 24 37 21 35 hhcurveto
            53 20 -43 -54 -86 -49 -46 -56 -37 -36 20 38 -34 hvcurveto
            -39 -30 rlineto
            -60 32 61 -53 86 hhcurveto
            100 63 74 97 64 -23 54 -44 41 hvcurveto
            35 -37 -49 26 -60 hhcurveto
            -44 -38 -13 -22 -31 hvcurveto
            53 -85 rlineto
            return
          </CharString>
          <CharString index="135">
            rmoveto
            22 24 36 18 34 hhcurveto
            52 19 -40 -53 -82 -47 -45 -55 -36 -36 19 36 -33 hvcurveto
            -37 -30 rlineto
            -58 31 60 -51 84 hhcurveto
            99 62 72 95 62 -23 52 -44 41 hvcurveto
            34 -36 -48 25 -58 hhcurveto
            -44 -38 -12 -23 -30 hvcurveto
            51 -82 rlineto
            endchar
          </CharString>
          <CharString index="136">
            277 rmoveto
            -30 -40 -17 -35 -41 vvcurveto
            -52 30 -40 39 -32 vhcurveto
            -29 36 45 -20 48 hhcurveto
            56 58 31 64 41 hvcurveto
            -61 64 rlineto
            -12 hlineto
            -55 -40 -40 -31 -40 hhcurveto
            -37 -25 26 41 35 17 31 25 33 hvcurveto
            176 232 -85 61 rlineto
            endchar
          </CharString>
          <CharString index="137">
            2 -10 -12 1 -8 hhcurveto
            -2 hlineto
            -35 -23 -5 -34 hhcurveto
            -7 -7 0 1 -6 hvcurveto
            28 29 14 31 34 vvcurveto
            41 -24 38 -28 26 vhcurveto
            29 -32 -38 17 -40 hhcurveto
            -63 -54 -45 -68 -52 33 -47 51 -34 hvcurveto
            -39 -22 -44 -19 -43 -17 45 -80 rcurveline
            return
          </CharString>
          <CharString index="138">
            91 rmoveto
            218 hlineto
            hintmask 10110000
            -91 106 vlineto
            hintmask 01110000
            91 78 71 vlineto
            -78 -4 rlineto
            115 vlineto
            -93 -5 -12 -114 -154 -8 75 63 57 103 90 170 rlinecurve
            -16 22 rlineto
            -100 hlineto
            -61 -129 -64 -119 -71 -113 rrcurveto
            endchar
          </CharString>
          <CharString index="139">
            212 callgsubr
            53 -35 54 -66 40 vhcurveto
            84 83 52 52 46 42 23 4 rlinecurve
            5 -7 6 -16 -38 vvcurveto
            -120 -2 vlineto
            -49 -20 -20 -28 -26 13 -17 24 -28 hvcurveto
            17 -20 rlineto
            -27 23 20 -9 22 hhcurveto
            29 21 21 35 hvcurveto
            37 return
          </CharString>
          <CharString index="140">
            -107 callgsubr
            288 vlineto
            69 -12 46 -13 46 vhcurveto
            -8 29 -7 27 23 vvcurveto
            45 33 21 41 19 26 -4 -10 22 vhcurveto
            8 8 -24 65 rlineto
            16 -24 -35 8 -30 hhcurveto
            return
          </CharString>
          <CharString index="141">
            -133 -49 hlineto
            59 -12 rlineto
            10 -2 6 -7 -9 vvcurveto
            -412 vlineto
            -10 -7 -7 -9 -2 vhcurveto
            -59 -11 rlineto
            -47 134 vlineto
            return
          </CharString>
          <CharString index="142">
            -13 19 -17 17 -19 15 rrcurveto
            25 -33 -35 18 -45 hhcurveto
            -39 -41 -13 -22 -30 49 callgsubr
            -53 -84 -44 -59 -57 hvcurveto
            -37 1 -33 25 -27 42 -39 -28 rcurveline
            -85 37 65 -39 68 hhcurveto
            return
          </CharString>
          <CharString index="143">
            226 17 rmoveto
            -62 70 -31 62 54 vvcurveto
            56 33 22 93 1 vhcurveto
            32 46 -1 -2 41 hvcurveto
            -44 vlineto
            -4 -3 0 -2 hhcurveto
            -51 -17 -21 -26 -23 13 -18 26 -26 hvcurveto
            20 -20 rlineto
            -26 27 21 -10 20 hhcurveto
            31 21 22 35 hvcurveto
            37 return
          </CharString>
          <CharString index="144">
            -88 50 -71 56 -46 vhcurveto
            -41 52 68 -30 82 hhcurveto
            89 85 37 58 42 hvcurveto
            -60 63 -13 -2 rlineto
            -44 -36 -68 -37 -80 hhcurveto
            -110 -68 70 95 47 17 45 23 35 hvcurveto
            468 40 rmoveto
            -33 -35 -31 -53 -12 vhcurveto
            -16 -45 rlineto
            return
          </CharString>
          <CharString index="145">
            32 -30 28 -28 -32 vvcurveto
            -28 -20 -18 -30 -42 -52 35 59 -40 vhcurveto
            -38 -29 rlineto
            -92 45 69 -50 76 hhcurveto
            70 53 44 60 56 -45 36 -31 25 hvcurveto
            -7 6 -7 6 6 vvcurveto
            6 6 8 11 9 vhcurveto
            24 31 67 22 59 hhcurveto
            return
          </CharString>
          <CharString index="146">
            -27 74 rlineto
            1 -10 166 callsubr
            -59 -44 -66 return
          </CharString>
          <CharString index="147">
            44 -48 -56 16 -49 hhcurveto
            -79 -53 -41 -68 -24 6 -27 10 -21 hvcurveto
            91 314 callsubr
            20 vvcurveto
            38 23 32 53 71 55 -55 -143 78 callgsubr
            return
          </CharString>
          <CharString index="148">
            238 508 -74 callsubr
            return
          </CharString>
          <CharString index="149">
            rmoveto
            -59 63 -12 -2 rlineto
            -41 -33 -66 -35 -76 hhcurveto
            -111 -67 70 95 47 17 45 23 35 hvcurveto
            -2 13 -93 22 rlineto
            -24 -43 -10 -45 -38 vvcurveto
            -88 50 -71 56 -46 vhcurveto
            -40 51 68 -31 83 hhcurveto
            86 82 35 55 37 hvcurveto
            return
          </CharString>
          <CharString index="150">
            44 -43 -52 15 -41 hhcurveto
            -63 -53 -42 -66 -23 6 -27 10 -21 hvcurveto
            356 callgsubr
            -9 16 -5 24 17 vvcurveto
            31 18 31 45 59 45 -54 -137 78 callgsubr
            return
          </CharString>
          <CharString index="151">
            rmoveto
            24 60 22 78 9 67 -88 10 rcurveline
            -15 -205 rlineto
            endchar
          </CharString>
          <CharString index="152">
            503 rmoveto
            hintmask 10110000
            -58 10 -35 -30 -68 -35 -56 -13 rlinecurve
            8 -49 29 1 48 7 21 6 rlinecurve
            -320 vlineto
            -13 -7 -7 -12 -1 vhcurveto
            -85 -13 rlineto
            -46 304 46 vlineto
            -71 12 19 callgsubr
            -6 7 12 vvcurveto
            endchar
          </CharString>
          <CharString index="153">
            620 91 rmoveto
            -28 19 rlineto
            -31 -24 -42 -16 -41 hhcurveto
            -69 -39 43 120 hvcurveto
            1 240 vlineto
            3 17 3 22 17 vvcurveto
            86 -55 55 -105 -59 -46 -18 -32 -33 vhcurveto
            32 -23 -37 18 -57 hhcurveto
            -79 -67 -35 -62 -22 hvcurveto
            return
          </CharString>
          <CharString index="154">
            58 -62 rlineto
            11 hlineto
            33 24 15 20 9 hhcurveto
            8 1 -14 -19 hvcurveto
            -134 vlineto
            -57 -14 -20 -26 -27 14 -19 23 -24 hvcurveto
            19 -19 rlineto
            -23 23 19 -13 23 hhcurveto
            30 20 22 34 hvcurveto
            36 vlineto
            -4 36 54 -4 36 hhcurveto
            return
          </CharString>
          <CharString index="155">
            250 40 rmoveto
            -88 91 -32 82 73 vvcurveto
            88 45 58 58 36 14 -25 -41 vhcurveto
            return
          </CharString>
          <CharString index="156">
            hhcurveto
            -7 -4 -60 callgsubr
            365 vlineto
            return
          </CharString>
          <CharString index="157">
            59 0 73 409 88 0 -20 hstemhm
            23 499 hintmask 10110000
            500 hmoveto
            22 56 -194 514 rlineto
            -113 hlineto
            -192 -514 22 -56 rlineto
            57 73 rmoveto
            hintmask 11010000
            142 409 148 -409 rlineto
            endchar
          </CharString>
          <CharString index="158">
            197 331 rmoveto
            -33 -21 15 28 37 34 29 41 41 27 -30 -46 6 hvcurveto
            -22 -23 -44 -11 -28 hhcurveto
            -143 76 rmoveto
            -42 24 -34 27 -24 vhcurveto
            -26 32 40 -14 41 hhcurveto
            20 16 3 3 13 hvcurveto
            3 -3 rlineto
            return
          </CharString>
          <CharString index="159">
            21 21 29 17 33 hhcurveto
            42 23 -26 -38 -64 -66 -58 -109 -78 hvcurveto
            endchar
          </CharString>
          <CharString index="160">
            -91 callgsubr
            -12 callgsubr
            return
          </CharString>
          <CharString index="161">
            vlineto
            55 -21 41 -43 37 vhcurveto
            28 -33 -40 21 -46 hhcurveto
            -93 -67 -73 -118 return
          </CharString>
          <CharString index="162">
            42 -15 35 -30 25 vhcurveto
            21 -23 -31 12 -25 hhcurveto
            -38 -38 232 callgsubr
            return
          </CharString>
          <CharString index="163">
            0 -55 callgsubr
            299.5 63 return
          </CharString>
          <CharString index="164">
            hhcurveto
            -18 -16 4 6 -15 hvcurveto
            3 11 2 12 12 vvcurveto
            53 -32 49 -41 33 vhcurveto
            26 -31 -43 21 -51 hhcurveto
            -46 -45 -18 -29 -35 hvcurveto
            59 -82 rlineto
            13 hlineto
            30 29 41 21 35 hhcurveto
            38 22 -23 -38 hvcurveto
            return
          </CharString>
          <CharString index="165">
            -161 rmoveto
            -17 270 callgsubr
            -21 13 26 36 41 38 58 17 hvcurveto
            -45 9 -34 -12 rlineto
            -62 -23 -48 -42 -50 vvcurveto
            -50 43 -24 55 -1 vhcurveto
            35 39 11 17 27 hvcurveto
            endchar
          </CharString>
          <CharString index="166">
            -17 16 -25 -5 -32 -10 -30 -13 rlinecurve
            16 -30 -33 11 -31 hhcurveto
            -103 -111 -104 -106 hvcurveto
            -31 -194 vlineto
            return
          </CharString>
          <CharString index="167">
            8 12 2 vhcurveto
            57 11 rlineto
            return
          </CharString>
          <CharString index="168">
            180 callgsubr
            38 -41 67 -37 hvcurveto
            -21 -22 -22 -23 -17 -19 72 -63 rcurveline
            25 27 25 25 25 24 rrcurveto
            37 -29 9 -24 -20 vvcurveto
            -53 -53 -25 -54 vhcurveto
            return
          </CharString>
          <CharString index="169">
            hhcurveto
            -36 -23 16 27 -11 hvcurveto
            62 19 46 44 63 vvcurveto
            45 -29 39 -22 21 vhcurveto
            35 -34 -39 14 -37 hhcurveto
            -82 -73 -60 -60 -58 hvcurveto
            69 -68 -84 51 -84 94 callsubr
            return
          </CharString>
          <CharString index="170">
            vvcurveto
            17 -12 21 -30 20 vhcurveto
            -8 5 rlineto
            20 -28 -20 6 -15 hhcurveto
            -24 -23 -16 -33 -10 2 -14 4 return
          </CharString>
          <CharString index="171">
            -29 -25 -25 -29 -35 29 -31 34 30 24 24 30 35 -28 31 -35 hvcurveto
            return
          </CharString>
          <CharString index="172">
            -4 -10 30 vhcurveto
            -473 vlineto
            -12 -7 -7 -11 -2 vhcurveto
            -41 9 callsubr
            return
          </CharString>
          <CharString index="173">
            38 11 41 14 36 vvcurveto
            26 -22 27 -30 20 vhcurveto
            -26 -12 -4 -35 -46 -14 -33 -12 rlinecurve
            -49 -18 -35 -23 -47 vvcurveto
            -50 42 -30 51 -13 vhcurveto
            39 -11 rlineto
            21 -5 6 -5 -23 vvcurveto
            -29 vlineto
            return
          </CharString>
          <CharString index="174">
            346 callsubr
            20 12 -12 -22 -34 -29 -32 -69 -13 hvcurveto
            -191 -33 -9 -10 26 -79 179 35 10 -19 11 -17 12 -15 rlinecurve
            -40 32 47 -32 66 hhcurveto
            return
          </CharString>
          <CharString index="175">
            -67 -12 86 callgsubr
          </CharString>
          <CharString index="176">
            79 callsubr
            -130 vlineto
            -3 -3 0 -3 hhcurveto
            -44 -18 -21 -27 -25 14 -17 24 -25 hvcurveto
            20 -19 rlineto
            -26 26 15 -9 23 hhcurveto
            return
          </CharString>
          <CharString index="177">
            hhcurveto
            -37 -23 18 25 -9 hvcurveto
            59 19 44 47 56 vvcurveto
            41 -24 37 -23 24 vhcurveto
            36 -35 -46 20 -53 hhcurveto
            -93 -84 -63 -96 -6 hvcurveto
            5 -17 -18 3 -19 hhcurveto
            -32 -32 -9 -14 -25 hvcurveto
            return
          </CharString>
          <CharString index="178">
            -55 -44 -52 -70 -18 vhcurveto
            47 -10 -19 15 -22 hhcurveto
            -22 -19 -13 -25 -16 hvcurveto
            -7 -10 rlineto
            -15 -23 -6 -20 -16 vvcurveto
            -37 38 -16 54 vhcurveto
            5 4 0 5 hhcurveto
            -106 15 55 -58 90 hhcurveto
            return
          </CharString>
          <CharString index="179">
            79 callsubr
            -154 vlineto
            -5 -5 0 -5 hhcurveto
            -45 -20 -23 -26 -26 16 -19 24 -25 hvcurveto
            20 -20 rlineto
            -26 27 18 -10 25 hhcurveto
            return
          </CharString>
          <CharString index="180">
            18 17 -7 -14 16 hvcurveto
            -3 -11 -1 -11 -12 vvcurveto
            -18 4 -17 3 -11 vhcurveto
            85 -38 12 8 rlineto
            -7 20 -4 19 16 vvcurveto
            55 39 36 44 30 17 -15 -23 -22 -15 -23 -29 -29 vhcurveto
            return
          </CharString>
          <CharString index="181">
            -17 16 -25 -5 -32 -10 -30 -14 rlinecurve
            17 -30 -34 11 -31 hhcurveto
            -103 -111 -104 -106 hvcurveto
            -30 vlineto
            return
          </CharString>
          <CharString index="182">
            -56 -9 72 164 45 103 49 return
          </CharString>
          <CharString index="183">
            -95 callsubr
            hintmask 10101011
            -107 callsubr
            return
          </CharString>
          <CharString index="184">
            rmoveto
            36 -26 27 -34 -31 -24 -24 -32 1 vhcurveto
            -36 26 -28 35 31 23 25 32 -1 vhcurveto
            endchar
          </CharString>
          <CharString index="185">
            rmoveto
            -29 29 48 -19 59 hhcurveto
            95 56 48 58 59 -52 29 -57 hvcurveto
            return
          </CharString>
          <CharString index="186">
            58 -62 rlineto
            11 hlineto
            35 25 14 18 9 hhcurveto
            8 1 -15 -18 hvcurveto
            return
          </CharString>
          <CharString index="187">
            85 vstem
            182 65 108 callsubr
            return
          </CharString>
          <CharString index="188">
            rmoveto
            212 -164 34 40 -125 152 125 155 -34 40 -212 -167 rlineto
            return
          </CharString>
          <CharString index="189">
            -20 -21 3 9 -19 hvcurveto
            66 -9 -20 25 -27 hhcurveto
            -13 -13 -3 -16 -21 hvcurveto
            -6 -5 rlineto
            -22 -17 -5 -15 -14 vvcurveto
            -27 21 -27 66 -23 vhcurveto
            -120 9 58 -75 96 hhcurveto
            return
          </CharString>
          <CharString index="190">
            219 vlineto
            12 6 60 callsubr
            49 -268 -49 vlineto
            -62 callsubr
            -7 -13 vvcurveto
            -407 vlineto
            -12 -7 -7 -11 -2 vhcurveto
            -8 callgsubr
            vlineto
            return
          </CharString>
          <CharString index="191">
            -35 callsubr
            10 hhcurveto
            7 1 -15 -18 hvcurveto
            -111 vlineto
            -54 18 -44 37 -37 vhcurveto
            26 -24 32 -19 37 -8 rrcurveto
            -4 vlineto
            -134 -114 65 -66 return
          </CharString>
          <CharString index="192">
            571 rmoveto
            49 -31 29 -35 -30 -27 -22 -33 -20 10 -14 12 -10 vhcurveto
            9 -7 6 -4 -14 vvcurveto
            -24 -21 -29 -30 -21 vhcurveto
            22 -30 rlineto
            70 32 45 55 63 vvcurveto
            endchar
          </CharString>
          <CharString index="193">
            -113 -117 rlineto
            endchar
          </CharString>
          <CharString index="194">
            -46 -31 -48 -62 -19 vhcurveto
            45 -7 -20 14 -22 hhcurveto
            -22 -18 -14 -26 -17 hvcurveto
            -7 -9 rlineto
            -15 -23 -6 -20 -15 vvcurveto
            -37 40 -16 49 vhcurveto
            -113 8 53 -59 73 hhcurveto
            return
          </CharString>
          <CharString index="195">
            83 -65 vlineto
            -14 -88 -110 -6 44 39 43 55 72 137 rlinecurve
            -13 16 rlineto
            -78 hlineto
            return
          </CharString>
          <CharString index="196">
            91 72 76 356 86 hstemhm
            31 135 -50 100 118 97 return
          </CharString>
          <CharString index="197">
            37 -7 43 -8 31 vhcurveto
            -90 26 -8 333 callgsubr
            return
          </CharString>
          <CharString index="198">
            -19 -167 -21 30 -21 200 -21 368 46 return
          </CharString>
          <CharString index="199">
            -48 -18 -30 -29 -49 vvcurveto
            -66 55 -48 126 vhcurveto
            return
          </CharString>
          <CharString index="200">
            hstemhm
            90 112 191 112 -109 108 return
          </CharString>
          <CharString index="201">
            hhcurveto
            -85 -53 -51 -67 -81 78 -66 77 return
          </CharString>
          <CharString index="202">
            268 vlineto
            -91 33 -9 -9 rlineto
            -280 vlineto
            -99 49 -22 79 -28 vhcurveto
            132 -48 rlineto
            45 -16 7 -18 -14 vvcurveto
            -18 -14 -23 -29 -25 vhcurveto
            2 -13 82 -31 rlineto
            return
          </CharString>
          <CharString index="203">
            hmoveto
            103 callgsubr
          </CharString>
          <CharString index="204">
            rmoveto
            -35 20 rlineto
            -26 -15 -19 -21 -23 hhcurveto
            return
          </CharString>
          <CharString index="205">
            rmoveto
            -35 19 rlineto
            -24 -16 -20 -21 -24 hhcurveto
            return
          </CharString>
          <CharString index="206">
            344 570 rmoveto
            -112 hlineto
            return
          </CharString>
          <CharString index="207">
            41 -24 41 -33 29 vhcurveto
            32 -34 -36 15 -49 hhcurveto
            -48 -44 -20 -32 -34 hvcurveto
            31 -34 -46 21 -57 hhcurveto
            -81 -60 -47 -63 -35 18 -29 25 -23 hvcurveto
            -1 -4 rlineto
            return
          </CharString>
          <CharString index="208">
            10 10 -25 72 141 callsubr
            -53 26 -51 40 -39 hvcurveto
            37 -35 45 -21 53 -2 rrcurveto
            -2 vlineto
            -130 -124 70 -63 return
          </CharString>
          <CharString index="209">
            rmoveto
            -143 3 -50 68 79 vvcurveto
            74 54 58 99 19 vhcurveto
            7 12 -48 71 rlineto
            -110 -10 -99 -86 -118 180 callsubr
          </CharString>
          <CharString index="210">
            rmoveto
            56 vlineto
            -212 167 -34 -40 125 -155 -125 -152 34 -40 rlineto
            return
          </CharString>
          <CharString index="211">
            rmoveto
            56 vlineto
            -213 167 -32 -40 124 -155 -126 -152 34 -40 rlineto
            return
          </CharString>
          <CharString index="212">
            212 callgsubr
            48 -30 46 -53 38 vhcurveto
            166 85 6 -9 8 -7 8 -7 rlinecurve
            -26 32 40 -14 41 hhcurveto
            19 17 3 3 14 hvcurveto
            2 -2 rlineto
            return
          </CharString>
          <CharString index="213">
            -20 31 -13 33 33 vvcurveto
            55 34 22 42 20 25 -7 -11 377 callsubr
            -25 67 rlineto
            17 -25 -34 9 -28 hhcurveto
            -57 -44 -41 -76 2 hvcurveto
            -3 6 rlineto
            return
          </CharString>
          <CharString index="214">
            -19 28 -12 30 30 vvcurveto
            51 31 23 43 22 25 -6 -11 23 vhcurveto
            7 9 -24 65 rlineto
            18 -26 -37 9 -26 hhcurveto
            -51 -46 -36 -66 -2 hvcurveto
            -1 2 rlineto
            return
          </CharString>
          <CharString index="215">
            rmoveto
            -67 callgsubr
            return
          </CharString>
          <CharString index="216">
            64 -56 rlineto
            11 hlineto
            35 25 15 12 9 hhcurveto
            7 2 -12 -21 hvcurveto
            -47 vlineto
            -165 2 rlineto
            -105 2 -81 -43 -94 vvcurveto
            -78 60 -97 102 -80 vhcurveto
            endchar
          </CharString>
          <CharString index="217">
            76 248 81 5 -20 hstemhm
            22 95 135 97 -86 95 return
          </CharString>
          <CharString index="218">
            17 vhcurveto
            34 -33 -37 16 -39 hhcurveto
            -26 -33 -7 -20 -26 hvcurveto
            return
          </CharString>
          <CharString index="219">
            51 28 -15 -34 -36 -31 -20 -46 -35 -36 12 15 -23 hvcurveto
            return
          </CharString>
          <CharString index="220">
            26 -24 rlineto
            31 33 41 14 40 hhcurveto
            54 32 -23 -63 hvcurveto
            -43 vlineto
            -77 -6 rlineto
            -82 -4 -79 -36 -81 vvcurveto
            -62 46 -38 77 64 54 26 45 32 vhcurveto
            return
          </CharString>
          <CharString index="221">
            rmoveto
            -143 3 -50 71 74 vvcurveto
            79 56 56 97 19 vhcurveto
            7 11 -48 72 rlineto
            -109 -9 -100 -88 -119 vvcurveto
            -118 96 -110 192 vhcurveto
            return
          </CharString>
          <CharString index="222">
            vlineto
            -12 -52 callgsubr
            -8 callgsubr
            return
          </CharString>
          <CharString index="223">
            98 99 rlineto
            37 37 44 32 42 hhcurveto
            28 18 -15 -24 -34 -35 -31 -58 -14 hvcurveto
            -16 -45 12 -27 17 -30 18 -22 rlinecurve
            -41 31 48 -34 70 hhcurveto
            return
          </CharString>
          <CharString index="224">
            -16 15 -49 -1 -66 -9 -49 193 callgsubr
            -482 vlineto
            -12 -7 -8 -11 -2 vhcurveto
            -41 9 callsubr
            vlineto
            return
          </CharString>
          <CharString index="225">
            -52 callsubr
            31 hvcurveto
            endchar
          </CharString>
          <CharString index="226">
            222 18 rmoveto
            -63 69 -27 60 50 vvcurveto
            52 30 30 71 40 35 -7 -14 34 vhcurveto
            13 -27 15 -26 17 -22 rrcurveto
            -40 32 48 -33 66 hhcurveto
            return
          </CharString>
          <CharString index="227">
            319 13 rmoveto
            -64 67 -26 56 47 vvcurveto
            49 31 30 74 23 22 -2 -5 21 vhcurveto
            13 -27 15 -25 16 -20 rrcurveto
            -40 32 47 -33 67 hhcurveto
            return
          </CharString>
          <CharString index="228">
            12 hlineto
            39 32 46 27 42 hhcurveto
            34 18 -16 -27 -36 -33 -30 -56 -14 hvcurveto
            -15 -45 11 -28 17 -30 18 -22 rlinecurve
            -42 33 48 -35 69 hhcurveto
            return
          </CharString>
          <CharString index="229">
            rmoveto
            -42 22 rlineto
            -45 -25 -32 -19 -39 hhcurveto
            -39 -32 20 44 -22 hvcurveto
            -47 -22 rlineto
            -66 14 50 -52 72 hhcurveto
            72 51 49 69 19 hvcurveto
            endchar
          </CharString>
          <CharString index="230">
            hhcurveto
            -38 -25 19 29 -8 hvcurveto
            64 20 41 41 55 vvcurveto
            return
          </CharString>
          <CharString index="231">
            -66 33 -56 43 -41 vhcurveto
            -33 36 45 -24 52 hhcurveto
            60 return
          </CharString>
          <CharString index="232">
            -58 hlineto
            -5 -35 -2 -42 5 -39 rrcurveto
            return
          </CharString>
          <CharString index="233">
            72 -5 359 callgsubr
            return
          </CharString>
          <CharString index="234">
            -46 30 50 -26 71 hhcurveto
            80 68 34 66 20 hvcurveto
            -168 284 rmoveto
            43 22 -36 -50 hvcurveto
            -17 -138 vlineto
            75 8 27 28 38 hhcurveto
            return
          </CharString>
          <CharString index="235">
            -71 -33 -42 -48 -54 vvcurveto
            -42 27 -39 26 -24 vhcurveto
            -32 33 44 -20 44 hhcurveto
            6 5 0 1 5 hvcurveto
            45 -146 12 -4 86 44 rlineto
            return
          </CharString>
          <CharString index="236">
            146 callsubr
            hintmask 01111110
            return
          </CharString>
          <CharString index="237">
            29 -16 -17 17 -22 hhcurveto
            -22 -18 -16 -20 -11 hvcurveto
            -5 -8 rlineto
            -9 -16 -6 -19 -14 vvcurveto
            -34 31 -20 53 11 10 1 1 11 vhcurveto
            return
          </CharString>
          <CharString index="238">
            hhcurveto
            -6 -5 0 1 -6 hvcurveto
            3 0 2 3 vvcurveto
            66 -27 59 -52 -15 -14 195 callgsubr
            -10 -12 -17 -19 vvcurveto
            return
          </CharString>
          <CharString index="239">
            hhcurveto
            -5 -5 1 1 -5 hvcurveto
            -3 67 -30 56 -48 41 rrcurveto
            28 -34 -45 20 -53 hhcurveto
            -41 199 callgsubr
          </CharString>
          <CharString index="240">
            19 -13 19 -23 -25 -11 -19 -19 -20 278 callsubr
            20 vhcurveto
            return
          </CharString>
          <CharString index="241">
            135 callsubr
            97 76 -22 return
          </CharString>
          <CharString index="242">
            336 callgsubr
            hstemhm
            -4 85 return
          </CharString>
          <CharString index="243">
            rmoveto
            -27 -11 20 27 39 26 29 55 hvcurveto
            1 hlineto
            10 -14 4 -16 -17 vvcurveto
            -41 -28 -27 -30 vhcurveto
            hintmask 11110110
            232 -253 rmoveto
            return
          </CharString>
          <CharString index="244">
            -76 -29 -47 -46 -31 -7 28 36 vhcurveto
            121 vlineto
            42 -14 35 -28 25 vhcurveto
            21 -25 250 callsubr
            return
          </CharString>
          <CharString index="245">
            -75 -30 -47 -44 -34 -5 27 37 vhcurveto
            121 240 callsubr
            -24 -31 12 -24 hhcurveto
            -38 282 callsubr
            return
          </CharString>
          <CharString index="246">
            hhcurveto
            -36 -23 19 25 -10 hvcurveto
            62 20 40 48 53 vvcurveto
            39 -22 35 -27 26 vhcurveto
            32 -33 -48 27 -62 hhcurveto
            -87 -66 -49 -85 hvcurveto
            return
          </CharString>
          <CharString index="247">
            -54 -359 rmoveto
            -56 -40 25 48 46 37 56 70 17 hvcurveto
            2 -1 rlineto
            311 callgsubr
          </CharString>
          <CharString index="248">
            rlineto
            4 -17 -19 2 -19 hhcurveto
            -121 -55 -78 -74 return
          </CharString>
          <CharString index="249">
            -36 hlineto
            -13 -12 -1 -1 -12 hvcurveto
            -21 17 -13 21 return
          </CharString>
          <CharString index="250">
            rlineto
            -47 205 47 vlineto
            return
          </CharString>
          <CharString index="251">
            10 vlineto
            31 -9 19 -17 16 vhcurveto
            -20 23 -22 5 -28 5 -22 4 rcurveline
            -31 6 -15 12 17 vvcurveto
            22 23 9 49 17 vhcurveto
            return
          </CharString>
          <CharString index="252">
            39 -21 40 -34 30 vhcurveto
            27 -33 -37 17 -43 hhcurveto
            -54 -52 -30 -50 -49 hvcurveto
            -116 -117 rlineto
            -35 23 -15 19 22 vvcurveto
            return
          </CharString>
          <CharString index="253">
            41 rmoveto
            -107 callsubr
            return
          </CharString>
          <CharString index="254">
            -26 30 -15 30 34 vvcurveto
            44 32 25 42 18 26 -4 -11 23 vhcurveto
            8 9 -25 65 rlineto
            15 -23 -37 9 -28 hhcurveto
            endchar
          </CharString>
          <CharString index="255">
            -31 -54 -53 -4 callgsubr
            return
          </CharString>
          <CharString index="256">
            75 383 rmoveto
            -86 81 -31 48 -17 vhcurveto
            38 -12 38 -10 20 -20 rrcurveto
            10 -10 2 -12 -11 vvcurveto
            -38 -36 -27 -56 vhcurveto
            return
          </CharString>
          <CharString index="257">
            vhcurveto
            47 -9 -87 callsubr
            4 return
          </CharString>
          <CharString index="258">
            -294 463 rmoveto
            22 23 -14 -31 -36 -28 -33 -42 -29 hvcurveto
            -23 18 -14 25 30 vvcurveto
            46 32 24 30 vhcurveto
            endchar
          </CharString>
          <CharString index="259">
            -12 6 -15 -11 vvcurveto
            -29 -33 -15 return
          </CharString>
          <CharString index="260">
            30 30 8 12 25 hvcurveto
            endchar
          </CharString>
          <CharString index="261">
            -23 17 -27 43 -30 vhcurveto
            -40 -11 -33 -22 -39 hhcurveto
            -46 -32 33 76 62 33 61 54 39 hvcurveto
            14 vlineto
            -85 48 rlineto
            return
          </CharString>
          <CharString index="262">
            rmoveto
            29 -21 24 -27 -26 -17 -23 -24 -29 24 -22 25 23 19 19 26 vhcurveto
            -96 177 rmoveto
            -70 -49 -45 -66 hvcurveto
            return
          </CharString>
          <CharString index="263">
            rmoveto
            -21 -8 19 21 40 30 20 41 3 hvcurveto
            5 -14 2 -14 -12 vvcurveto
            -38 -26 -25 -23 vhcurveto
            290 -275 rmoveto
            return
          </CharString>
          <CharString index="264">
            92 -15 -20 hstemhm
            90 112 -109 108 193 112 return
          </CharString>
          <CharString index="265">
            hstemhm
            233 84 59 94 97 100 153 100 return
          </CharString>
          <CharString index="266">
            20 vvcurveto
            32 28 8 38 11 vhcurveto
            38 12 35 return
          </CharString>
          <CharString index="267">
            196 -51 51 276 callsubr
            return
          </CharString>
          <CharString index="268">
            -7 -69 1 -57 7 -70 rrcurveto
            59 hlineto
            return
          </CharString>
          <CharString index="269">
            -150 rmoveto
            6 12 -42 76 rlineto
            -8 return
          </CharString>
          <CharString index="270">
            137 231 callsubr
            return
          </CharString>
          <CharString index="271">
            -11 -9 50 334 50 return
          </CharString>
          <CharString index="272">
            96 -11 52 486 52 return
          </CharString>
          <CharString index="273">
            337 callgsubr
            -81 return
          </CharString>
          <CharString index="274">
            19 callgsubr
            -5 7 return
          </CharString>
          <CharString index="275">
            658 397 rmoveto
            -34 -35 -34 -62 -19 vhcurveto
            -17 -48 15 -31 18 -29 21 -24 rlinecurve
            -39 32 48 -30 63 hhcurveto
            return
          </CharString>
          <CharString index="276">
            346 callsubr
            22 11 -13 -23 -85 -144 -82 -124 -65 -28 25 49 hvcurveto
            return
          </CharString>
          <CharString index="277">
            rlineto
            -104 2 -82 -47 -96 vvcurveto
            -78 60 -97 102 -79 vhcurveto
            37 37 rlineto
            -62 71 -31 61 54 vvcurveto
            58 34 23 92 return
          </CharString>
          <CharString index="278">
            hhcurveto
            -48 -20 21 28 44 54 21 69 -1 hvcurveto
            29 hlineto
            9 9 -23 73 -44 1 -29 1 -27 -3 -24 -6 rlinecurve
            return
          </CharString>
          <CharString index="279">
            -55 -6 134 134 -51 51 -219 -218 219 -218 51 51 -134 134 55 -5 rlineto
            return
          </CharString>
          <CharString index="280">
            hhcurveto
            -39 -25 335 callgsubr
            62 21 40 40 56 vvcurveto
            41 -22 36 -32 29 vhcurveto
            32 -37 -41 19 -50 hhcurveto
            return
          </CharString>
          <CharString index="281">
            142 371 rmoveto
            42 31 24 32 22 23 -14 -31 -34 -26 -32 -40 -29 vhcurveto
            -28 19 -14 27 28 vvcurveto
            return
          </CharString>
          <CharString index="282">
            -4 47 -22 -21 253 47 -32 47 209 47 -3 -20 hstemhm
            27 91 112 92 93 92 111 93 return
          </CharString>
          <CharString index="283">
            154 373 rmoveto
            37 28 26 34 28 16 -18 -26 -35 -26 -31 -41 -18 vhcurveto
            -24 16 -15 22 27 vvcurveto
            return
          </CharString>
          <CharString index="284">
            -204 hmoveto
            72 19 34 33 39 21 -41 -77 -72 -19 -34 -33 -38 -22 40 78 vhcurveto
            593 -257 rmoveto
            return
          </CharString>
          <CharString index="285">
            271 callsubr
            318 callsubr
            return
          </CharString>
          <CharString index="286">
            363 162 callsubr
            -19 -22 -7 return
          </CharString>
          <CharString index="287">
            vvcurveto
            -120 96 -109 192 vhcurveto
            endchar
          </CharString>
          <CharString index="288">
            -40 -25 -26 -35 -42 vvcurveto
            -42 26 -44 38 -31 vhcurveto
            -31 35 51 -26 65 hhcurveto
            61 70 22 46 41 hvcurveto
            return
          </CharString>
          <CharString index="289">
            84 167 80 -8 79 81 -20 hstemhm
            252 92 45.5 101.5 15 90 return
          </CharString>
          <CharString index="290">
            138 115 rmoveto
            29 -22 25 -27 -28 -16 -25 -24 -30 24 -22 25 25 19 20 27 vhcurveto
            endchar
          </CharString>
          <CharString index="291">
            hstemhm
            30 86 -47 85 58 147 -99 89 return
          </CharString>
          <CharString index="292">
            -39 30 -63 hhcurveto
            -33 -34 -8 -10 -26 hvcurveto
            return
          </CharString>
          <CharString index="293">
            -40 -86 -47 -86 -56 -85 rrcurveto
            endchar
          </CharString>
          <CharString index="294">
            -2 6 -1 6 5 vvcurveto
            35 21 26 24 14 6 -9 -11 -20 -17 -21 -17 -20 vhcurveto
            hintmask 1100110100000000
            return
          </CharString>
          <CharString index="295">
            18 -84 103 23 rlineto
            -2 -7 -1 -9 -8 vvcurveto
            -38 21 -30 31 -25 vhcurveto
            -23 28 46 -25 55 hhcurveto
            return
          </CharString>
          <CharString index="296">
            237 callsubr
            -24 26 -29 19 vhcurveto
            return
          </CharString>
          <CharString index="297">
            -31 10 -33 11 -16 13 rrcurveto
            -14 10 -6 13 18 vvcurveto
            32 27 34 43 43 30 -30 -36 32 vhcurveto
            return
          </CharString>
          <CharString index="298">
            -20 7 -18 13 -15 rrcurveto
            -22 18 25 -9 22 hhcurveto
            hintmask 0010110010000000
            28 40 16 29 32 hvcurveto
            endchar
          </CharString>
          <CharString index="299">
            63 vvcurveto
            36 -21 39 -37 28 vhcurveto
            24 -32 -44 16 -54 hhcurveto
            -44 -51 -11 -23 -38 hvcurveto
            44 -80 rlineto
            return
          </CharString>
          <CharString index="300">
            rmoveto
            -94 26 -8 -7 5 -535 94 -26 8 7 rlineto
            return
          </CharString>
          <CharString index="301">
            279 callgsubr
            110 return
          </CharString>
          <CharString index="302">
            -44 -90 -61 -18 -113 -15 rrcurveto
            return
          </CharString>
          <CharString index="303">
            rmoveto
            43 -51 -40 19 -50 hhcurveto
            return
          </CharString>
          <CharString index="304">
            89 callgsubr
            rlineto
            return
          </CharString>
          <CharString index="305">
            -5 -17 -20 -4 -13 hhcurveto
            -28 -17 16 22 25 24 14 34 14 hvcurveto
            32 14 56 19 51 vvcurveto
            return
          </CharString>
          <CharString index="306">
            rmoveto
            33 32 29 28 25 22 -14 -31 -32 -22 -29 -34 -27 vhcurveto
            -31 17 -20 24 30 vvcurveto
            return
          </CharString>
          <CharString index="307">
            -27 vvcurveto
            -50 -29 callgsubr
            103 hhcurveto
            return
          </CharString>
          <CharString index="308">
            -7 -11 -2 vhcurveto
            -42 -8 rlineto
            -46 249 46 vlineto
            -58 8 rlineto
            -12 1 -6 8 11 vvcurveto
            return
          </CharString>
          <CharString index="309">
            rmoveto
            41 32 25 30 22 23 -14 -32 -33 -25 -31 -38 -28 vhcurveto
            -27 18 -17 25 29 vvcurveto
            return
          </CharString>
          <CharString index="310">
            30 -4 -9 28 vhcurveto
            -529 vlineto
            -12 29 65 -16 63 hhcurveto
            148 80 88 148 hvcurveto
            return
          </CharString>
          <CharString index="311">
            38 15 37 12 35 9 3 -3 rcurveline
            -3 -12 -2 -13 -14 vvcurveto
            -78 56 -97 103 -79 vhcurveto
            return
          </CharString>
          <CharString index="312">
            -8 -9 28 -76 rlineto
            106 hlineto
            -7 -16 -4 -19 -21 vvcurveto
            -78 56 -96 104 -80 vhcurveto
            endchar
          </CharString>
          <CharString index="313">
            -28 18 -30 18 -22 rlinecurve
            -42 33 46 -35 69 hhcurveto
            return
          </CharString>
          <CharString index="314">
            hstemhm
            31 135 -70 98 140 97 return
          </CharString>
          <CharString index="315">
            hstemhm
            22 140 -87 99 138 100 return
          </CharString>
          <CharString index="316">
            -240 274 callsubr
            return
          </CharString>
          <CharString index="317">
            -187 -151 62.5 return
          </CharString>
          <CharString index="318">
            hstem
            187 callgsubr
            return
          </CharString>
          <CharString index="319">
            4 -6 5 13 vvcurveto
            return
          </CharString>
          <CharString index="320">
            vhcurveto
            hintmask 01111010
            11 -8 3 -9 2 -10 15 -72 rcurveline
            64 hlineto
            hintmask 01110110
            8 46 3 43 return
          </CharString>
          <CharString index="321">
            242 callsubr
            22 24 11 20 hhcurveto
            21 11 -12 -24 -64 -75 -72 -69 hvcurveto
            return
          </CharString>
          <CharString index="322">
            385 293 rmoveto
            90 callsubr
            return
          </CharString>
          <CharString index="323">
            -25 vhcurveto
            -114 6 51 -75 102 hhcurveto
            hintmask 1011001101100000
            27 34 7 12 22 hvcurveto
            endchar
          </CharString>
          <CharString index="324">
            -41 9 callsubr
            113 -2 vlineto
            -53 -19 -49 -41 -52 vvcurveto
            -50 43 -24 56 -1 vhcurveto
            return
          </CharString>
          <CharString index="325">
            hhcurveto
            -35 -17 21 31 42 33 26 49 8 9 0 -2 11 hvcurveto
            6 7 -18 70 rlineto
            return
          </CharString>
          <CharString index="326">
            vvcurveto
            -49 -53 -24 -48 -50 -61 26 76 -63 vhcurveto
            -39 -30 rlineto
            -99 55 89 -55 102 hhcurveto
            return
          </CharString>
          <CharString index="327">
            rmoveto
            58 -39 37 -61 -61 -39 -37 -58 -57 39 -37 61 61 39 37 57 vhcurveto
            endchar
          </CharString>
          <CharString index="328">
            vlineto
            -12 -7 -8 -22 callgsubr
            -90 -9 rlineto
            -47 vlineto
            -7 61 78 -4 55 hhcurveto
            endchar
          </CharString>
          <CharString index="329">
            hvcurveto
            hintmask 11010000
            -35 callsubr
            10 hhcurveto
            7 1 -15 -18 hvcurveto
            return
          </CharString>
          <CharString index="330">
            12 472 rmoveto
            53 -80 rlineto
            13 hlineto
            25 29 37 20 32 hhcurveto
            36 18 -24 -31 return
          </CharString>
          <CharString index="331">
            68 29 56 28 45 28 24 -7 26 -5 26 -1 -17 -23 -7 -27 1 -24 rrcurveto
            return
          </CharString>
          <CharString index="332">
            35 -25 23 -38 -37 -25 -23 -35 -35 25 -24 37 38 25 24 35 vhcurveto
            endchar
          </CharString>
          <CharString index="333">
            -55 callgsubr
            373.5 -20 return
          </CharString>
          <CharString index="334">
            rmoveto
            268 68 -268 hlineto
            return
          </CharString>
          <CharString index="335">
            50 25 355 callsubr
            return
          </CharString>
          <CharString index="336">
            1 -11 2 -10 hvcurveto
            -6 -12 return
          </CharString>
          <CharString index="337">
            hstemhm
            187 callgsubr
            return
          </CharString>
          <CharString index="338">
            -9 336 callsubr
            return
          </CharString>
          <CharString index="339">
            43 -16 34 -29 26 vhcurveto
            19 -22 -31 13 -26 hhcurveto
            -38 -38 232 callgsubr
            return
          </CharString>
          <CharString index="340">
            274 callgsubr
            -24 -31 12 -25 hhcurveto
            -38 -38 232 callgsubr
            return
          </CharString>
          <CharString index="341">
            rmoveto
            20 -13 19 -23 -25 -11 -19 373 callsubr
            return
          </CharString>
          <CharString index="342">
            43 -16 34 -28 26 vhcurveto
            19 -24 -31 13 -25 hhcurveto
            -38 282 callsubr
            return
          </CharString>
          <CharString index="343">
            -21 89 76 113 82.5 81.5 80 -80 83 return
          </CharString>
          <CharString index="344">
            20 -9 20 263 callgsubr
            return
          </CharString>
          <CharString index="345">
            rmoveto
            19 -13 19 -23 -25 -11 -19 -19 -19 11 -19 25 23 13 19 19 vhcurveto
            return
          </CharString>
          <CharString index="346">
            hstemhm
            29 93 -28 96 157 99 return
          </CharString>
          <CharString index="347">
            vlineto
            274 callgsubr
            return
          </CharString>
          <CharString index="348">
            -35 -45 -12 -20 -39 hvcurveto
            return
          </CharString>
          <CharString index="349">
            50 -82 rlineto
            11 hlineto
            18 return
          </CharString>
          <CharString index="350">
            107 141 rlineto
            endchar
          </CharString>
          <CharString index="351">
            rmoveto
            -35 callsubr
            10 hhcurveto
            6 2 -10 -23 hvcurveto
            return
          </CharString>
          <CharString index="352">
            5 12 -33 80 rlineto
            -11 -25 -29 -7 -25 hhcurveto
            -40 -42 18 59 -21 hvcurveto
            return
          </CharString>
          <CharString index="353">
            258 callsubr
            hvcurveto
            return
          </CharString>
          <CharString index="354">
            -33 -15 -32 hhcurveto
            -24 -10 13 13 28 45 17 53 7 hvcurveto
            -15 64 rlineto
            return
          </CharString>
          <CharString index="355">
            vlineto
            -61 5 -31 22 -28 vhcurveto
            -29 22 26 -9 22 hhcurveto
            34 39 21 30 return
          </CharString>
          <CharString index="356">
            160 -115 73 163 80 hstemhm
            284 callgsubr
            282 87 return
          </CharString>
          <CharString index="357">
            -30 12 -25 hhcurveto
            -39 282 callsubr
            return
          </CharString>
          <CharString index="358">
            112 59 112 return
          </CharString>
          <CharString index="359">
            -7 -22 hhcurveto
            -40 -35 23 63 -16 hvcurveto
            hintmask 1101100101100000
            -10 30 37 -4 return
          </CharString>
          <CharString index="360">
            vvcurveto
            37 38 19 57 1 vhcurveto
            10 80 callgsubr
            -13 1 return
          </CharString>
          <CharString index="361">
            287 callsubr
            121 return
          </CharString>
          <CharString index="362">
            38 275 rmoveto
            -46 30 -40 33 -31 vhcurveto
            -34 34 47 -21 50 hhcurveto
            return
          </CharString>
          <CharString index="363">
            73 108 68 202 74 hstemhm
            28 91 104 83 0 94 -7 82 return
          </CharString>
          <CharString index="364">
            25 35 56 16 38 hhcurveto
            28 16 -7 -22 -40 -59 -15 -79 -22 hvcurveto
            return
          </CharString>
          <CharString index="365">
            77 -62 vhcurveto
            -39 -30 rlineto
            -101 56 88 -54 102 hhcurveto
            98 66 50 74 return
          </CharString>
          <CharString index="366">
            -10 -19 -23 -6 -23 hhcurveto
            -51 -29 26 46 61 51 26 57 30 hvcurveto
            return
          </CharString>
          <CharString index="367">
            vlineto
            hintmask 01110110
            47 vlineto
            -87 12 rlineto
            -8 1 -9 8 9 vvcurveto
            47 return
          </CharString>
          <CharString index="368">
            16 -9 17 -6 18 -2 rrcurveto
            -3 vlineto
            -178 -185 71 -62 return
          </CharString>
          <CharString index="369">
            -78 callsubr
            171 82 194 77 -7 -20 hstemhm
            62 100 return
          </CharString>
          <CharString index="370">
            -72 -2 -6 -17 -23 vvcurveto
            -26 5 -16 35 -34 vhcurveto
            19 -20 rlineto
            return
          </CharString>
          <CharString index="371">
            84 205 120 119 -20 hstemhm
            331 98 -40 114 return
          </CharString>
          <CharString index="372">
            rlineto
            9 9 4 5 7 hhcurveto
            6 4 -4 -8 10 hvcurveto
            78 -70 return
          </CharString>
          <CharString index="373">
            170 -9 72 -71 65 114 45 11 45 76 76 -49 49 return
          </CharString>
          <CharString index="374">
            30 hvcurveto
            228 callsubr
            return
          </CharString>
          <CharString index="375">
            rmoveto
            68 hlineto
            18 305 rlineto
            -104 hlineto
            return
          </CharString>
          <CharString index="376">
            vvcurveto
            37 45 16 49 vhcurveto
            9 10 rlineto
            return
          </CharString>
          <CharString index="377">
            hhcurveto
            -33 -17 13 71 hvcurveto
            117 vlineto
            return
          </CharString>
          <CharString index="378">
            47 197 47 234 48 -5 -20 return
          </CharString>
          <CharString index="379">
            hhcurveto
            -100 callgsubr
            return
          </CharString>
          <CharString index="380">
            rlinecurve
            -74 callgsubr
            return
          </CharString>
          <CharString index="381">
            -78 callsubr
            525 -20 return
          </CharString>
          <CharString index="382">
            hhcurveto
            -41 -48 -19 -41 -43 hvcurveto
            return
          </CharString>
          <CharString index="383">
            hstemhm
            23 65 140 119 return
          </CharString>
          <CharString index="384">
            rrcurveto
            32 -36 -37 22 -51 hhcurveto
            return
          </CharString>
          <CharString index="385">
            11 -18 25 23 13 18 return
          </CharString>
          <CharString index="386">
            -73 -9 72 310 52 return
          </CharString>
          <CharString index="387">
            -2 318 callgsubr
            return
          </CharString>
          <CharString index="388">
            hvcurveto
            9 10 -38 76 rlineto
            return
          </CharString>
          <CharString index="389">
            -39 232 callgsubr
            return
          </CharString>
          <CharString index="390">
            hstemhm
            29 95 -86 91 return
          </CharString>
          <CharString index="391">
            20 hlineto
            9 9 return
          </CharString>
          <CharString index="392">
            -174 -21 36 -21 171 73 -73 94 339 -20 hstemhm
            return
          </CharString>
          <CharString index="393">
            71 vlineto
            27 25 -3 -5 14 hvcurveto
            11 -5 7 -6 3 -12 return
          </CharString>
          <CharString index="394">
            -21 -12 143 callgsubr
            return
          </CharString>
          <CharString index="395">
            -5 -11 -3 -11 -12 vvcurveto
            -52 55 -55 71 30 41 10 32 return
          </CharString>
          <CharString index="396">
            -21 158 160 -120 81 99 88 -48 -20 43 78 return
          </CharString>
          <CharString index="397">
            -20 50 98 -50 -20 41 93 -23 83 -76 -21 26 -21 hstemhm
            return
          </CharString>
          <CharString index="398">
            -15 -4 -14 hhcurveto
            -28 -20 13 26 33 34 34 50 19 hvcurveto
            return
          </CharString>
          <CharString index="399">
            hhcurveto
            -38 -19 17 26 49 68 26 47 7 hvcurveto
            8 9 rlineto
            return
          </CharString>
          <CharString index="400">
            -16 28 -21 rlinecurve
            -134 -163 67 -51 112 174 return
          </CharString>
          <CharString index="401">
            -39 callgsubr
            -44 -64 return
          </CharString>
          <CharString index="402">
            -75 41 -47 95 -8 vhcurveto
            -3 29 34 -2 25 hhcurveto
            endchar
          </CharString>
          <CharString index="403">
            vvcurveto
            189 vlineto
            return
          </CharString>
          <CharString index="404">
            5 -8 7 -9 7 -9 rrcurveto
            -41 35 45 -28 64 hhcurveto
            return
          </CharString>
          <CharString index="405">
            14 -31 19 -29 20 -24 rrcurveto
            -38 33 43 -30 68 hhcurveto
            return
          </CharString>
          <CharString index="406">
            -40 -42 vvcurveto
            -40 27 -36 40 -27 vhcurveto
            -27 39 56 -20 return
          </CharString>
          <CharString index="407">
            hhcurveto
            -37 -22 21 29 -11 hvcurveto
            64 19 52 41 60 vvcurveto
            return
          </CharString>
          <CharString index="408">
            hhcurveto
            -38 -24 23 32 -9 hvcurveto
            61 19 46 38 57 vvcurveto
            return
          </CharString>
          <CharString index="409">
            12 -28 18 -30 17 -22 rrcurveto
            -41 32 46 -36 70 hhcurveto
            return
          </CharString>
          <CharString index="410">
            0 170 -46 46 56 47 186 42 -42 47 hstemhm
            return
          </CharString>
          <CharString index="411">
            45 -33 41 -28 24 vhcurveto
            32 -35 -38 14 -38 hhcurveto
            -34 return
          </CharString>
          <CharString index="412">
            57 11 56 28 36 40 rrcurveto
            -24 22 27 -16 38 hhcurveto
            return
          </CharString>
          <CharString index="413">
            10 -18 12 -17 12 -15 rrcurveto
            -35 30 42 -29 64 hhcurveto
            return
          </CharString>
          <CharString index="414">
            10 -15 10 -13 9 -12 rrcurveto
            -50 42 50 -21 57 hhcurveto
            return
          </CharString>
          <CharString index="415">
            hhcurveto
            -22 -20 7 16 -16 hvcurveto
            51 28 42 50 62 vvcurveto
            return
          </CharString>
          <CharString index="416">
            11 -18 12 -18 12 -15 rrcurveto
            -35 30 43 -29 63 hhcurveto
            return
          </CharString>
          <CharString index="417">
            hhcurveto
            -23 -20 7 16 -16 hvcurveto
            52 28 42 50 62 vvcurveto
            return
          </CharString>
          <CharString index="418">
            -26 26 18 -10 22 hhcurveto
            31 20 21 35 hvcurveto
            endchar
          </CharString>
          <CharString index="419">
            -227 -174 -21 619 -20 return
          </CharString>
          <CharString index="420">
            -29 197 callgsubr
            return
          </CharString>
          <CharString index="421">
            378 callgsubr
            -8 15 -7 22 return
          </CharString>
          <CharString index="422">
            377 callgsubr
            hvcurveto
            endchar
          </CharString>
          <CharString index="423">
            378 callsubr
            7 return
          </CharString>
          <CharString index="424">
            vhcurveto
            284 callsubr
            return
          </CharString>
          <CharString index="425">
            hstemhm
            110 118 return
          </CharString>
          <CharString index="426">
            80 hstemhm
            331 98 return
          </CharString>
          <CharString index="427">
            23 35 vhcurveto
            endchar
          </CharString>
          <CharString index="428">
            -9 callgsubr
            -80 -59 return
          </CharString>
          <CharString index="429">
            79 -16 160 -112 77 157 79 -71 72 return
          </CharString>
          <CharString index="430">
            -23 -22 -27 -28 -38 vvcurveto
            -33 20 -28 24 -19 vhcurveto
            return
          </CharString>
          <CharString index="431">
            90 102 118 83 96 hhcurveto
            45 22 -19 -39 hvcurveto
            return
          </CharString>
          <CharString index="432">
            7 49 285 153 -46 47 -47 130 hstemhm
            return
          </CharString>
          <CharString index="433">
            76 -40 83 hstemhm
            -271 100 216 76 -58 100 return
          </CharString>
          <CharString index="434">
            -104 -5 -55 -52 -66 vvcurveto
            -45 25 -37 47 -28 vhcurveto
            return
          </CharString>
          <CharString index="435">
            vlineto
            15 -14 rlineto
            54 78 4 7 61 hvcurveto
            endchar
          </CharString>
          <CharString index="436">
            vvcurveto
            -53 -28 -36 -31 vhcurveto
            endchar
          </CharString>
          <CharString index="437">
            132 -116 114 return
          </CharString>
          <CharString index="438">
            11 316 callsubr
            return
          </CharString>
          <CharString index="439">
            -56 0 48 318 48 return
          </CharString>
          <CharString index="440">
            -85 -11 47 343 45 return
          </CharString>
          <CharString index="441">
            15 30 hvcurveto
            2 return
          </CharString>
          <CharString index="442">
            hstem
            90 114 return
          </CharString>
          <CharString index="443">
            50 478 49 return
          </CharString>
          <CharString index="444">
            103 -78 104 143 100 -92 118 hintmask 11101000
            return
          </CharString>
          <CharString index="445">
            -82 32 -31 13 30 vvcurveto
            30 34 21 50 vhcurveto
            return
          </CharString>
          <CharString index="446">
            152 callsubr
            -45 -23 vhcurveto
            return
          </CharString>
          <CharString index="447">
            160 82 194 77 -8 -20 hstemhm
            62 100 return
          </CharString>
          <CharString index="448">
            -21 160 160 -111 77 149 78 return
          </CharString>
          <CharString index="449">
            20 -46 34 -35 vhcurveto
            -31 31 49 -28 67 hhcurveto
            return
          </CharString>
          <CharString index="450">
            -18 -49 -41 -50 vvcurveto
            -50 42 -24 56 -1 vhcurveto
            return
          </CharString>
          <CharString index="451">
            rmoveto
            -70 -44 -48 -59 -22 4 -19 8 -17 hvcurveto
            return
          </CharString>
          <CharString index="452">
            vlineto
            365 callsubr
            return
          </CharString>
          <CharString index="453">
            242 callsubr
            21 25 11 20 hhcurveto
            return
          </CharString>
          <CharString index="454">
            272 426 rmoveto
            34 49 -12 -45 45 hvcurveto
            return
          </CharString>
          <CharString index="455">
            -25 21 43 -33 hvcurveto
            35 -26 -47 53 -76 hhcurveto
            return
          </CharString>
          <CharString index="456">
            -89 36 -24 10 25 vvcurveto
            34 34 22 48 vhcurveto
            return
          </CharString>
          <CharString index="457">
            68 62 60 vlineto
            -62 -3 rlineto
            return
          </CharString>
          <CharString index="458">
            hstemhm
            110 68 309 68 return
          </CharString>
          <CharString index="459">
            -20 115 93 -11 -21 hstemhm
            return
          </CharString>
          <CharString index="460">
            hhcurveto
            37 136 callgsubr
            return
          </CharString>
          <CharString index="461">
            246 77 179 -20 hstem
            return
          </CharString>
          <CharString index="462">
            46 25 50 vvcurveto
            39 return
          </CharString>
          <CharString index="463">
            hstemhm
            38 63 -60 106 return
          </CharString>
          <CharString index="464">
            112 78 112 return
          </CharString>
          <CharString index="465">
            -43 -54 -71 -17 return
          </CharString>
          <CharString index="466">
            hstemhm
            28 117 return
          </CharString>
          <CharString index="467">
            97 99 97 hintmask 10111010
            426 109 rmoveto
            return
          </CharString>
          <CharString index="468">
            222 56 105 33 -33 43 106 59 hstemhm
            return
          </CharString>
          <CharString index="469">
            10 -21 30 -21 325 68 47 70 hstemhm
            return
          </CharString>
          <CharString index="470">
            85 156 103 0 -20 121 -20 hstemhm
            return
          </CharString>
          <CharString index="471">
            -76 150 311 50 -50 129 hstemhm
            return
          </CharString>
          <CharString index="472">
            -62 8 -30 -88 callsubr
            return
          </CharString>
          <CharString index="473">
            -90 94 callsubr
            return
          </CharString>
          <CharString index="474">
            hhcurveto
            -23 -34 1 2 -33 hvcurveto
            108 vlineto
            return
          </CharString>
          <CharString index="475">
            20 39 63 72 30 81 2 hvcurveto
            9 10 return
          </CharString>
          <CharString index="476">
            56 73 vvcurveto
            42 -22 41 -36 29 vhcurveto
            23 return
          </CharString>
          <CharString index="477">
            -7 10 12 vvcurveto
            29 39 24 63 6 vhcurveto
            return
          </CharString>
          <CharString index="478">
            -5 -20 199 -21 24 -21 hstemhm
            110 return
          </CharString>
          <CharString index="479">
            -17 17 vhcurveto
            34 -33 -37 16 -39 hhcurveto
            -26 return
          </CharString>
          <CharString index="480">
            -20 -19 278 callsubr
            19 vhcurveto
            return
          </CharString>
          <CharString index="481">
            -20 hstemhm
            70 104 113 99 183 86 return
          </CharString>
          <CharString index="482">
            hstemhm
            30 86 -36 85 25 136 -55 89 return
          </CharString>
          <CharString index="483">
            7 11 22 hvcurveto
            endchar
          </CharString>
          <CharString index="484">
            23 vhcurveto
            8 8 return
          </CharString>
          <CharString index="485">
            rlineto
            -11 2 -6 return
          </CharString>
          <CharString index="486">
            97 66 49 76 return
          </CharString>
        <CharString name=".notdef">
          158 0 92 329 94 hstem
          64 96 325 94 vstem
          160 141 rmoveto
          125 115 -125 123 41 42 121 -128 119 128 44 -42 -127 -122 127 -124 -41 -41 -123 128 -118 -128 rlineto
          -139 -92 rmoveto
          515 515 -515 hlineto
          endchar
        </CharString>
        <CharString name="A">
          18 callsubr
          153 callgsubr
          hintmask 11010100
          99 callsubr
          hintmask 11101000
          -168 -493 -93 callgsubr
          -172 148 62 callgsubr
        </CharString>
        <CharString name="AE">
          -66 callgsubr
          endchar
        </CharString>
        <CharString name="Aacute">
          18 callsubr
          153 callgsubr
          hintmask 11010100
          99 callsubr
          hintmask 11101000
          -168 -493 -93 callgsubr
          -79 619 -85 callsubr
          -93 -471 62 callgsubr
        </CharString>
        <CharString name="Abreve">
          18 callsubr
          63 78 58 -21 153 callgsubr
          hintmask 11011101
          99 callsubr
          hintmask 11101110
          -168 -493 -93 callgsubr
          -77 651 -70 callsubr
          -95 -503 62 callgsubr
        </CharString>
        <CharString name="Acircumflex">
          18 callsubr
          89 -20 23 -20 153 callgsubr
          hintmask 11010101
          99 callsubr
          hintmask 11010110
          -168 -493 -93 callgsubr
          -349 526 -68 callgsubr
          rlineto
          hintmask 11101010
          -113 -117 rlineto
          209 -414 62 callgsubr
        </CharString>
        <CharString name="Adieresis">
          18 callsubr
          65 116 379 callgsubr
          -63 357 callsubr
          hintmask 11011011
          99 callsubr
          hintmask 11011101
          -168 -493 -93 callgsubr
          hintmask 11101011
          -265 596 -85 callgsubr
          -97 -448 62 callgsubr
        </CharString>
        <CharString name="Agrave">
          18 callsubr
          96 -20 153 callgsubr
          hintmask 11011010
          99 callsubr
          hintmask 11101100
          -168 -493 -93 callgsubr
          -311 696 -4 callsubr
          -40 -421 62 callgsubr
        </CharString>
        <CharString name="Amacron">
          18 callsubr
          86 68 153 callgsubr
          -425 268 hintmask 11011010
          99 callsubr
          hintmask 11011100
          -168 -493 -93 callgsubr
          hintmask 11101001
          -360 559 227 callsubr
          188 -479 62 callgsubr
        </CharString>
        <CharString name="Aogonek">
          91 -189 63 126 47 122 56 252 93 0 -20 379 callgsubr
          155 91 hintmask 11101110
          557 -161 rmoveto
          -18 358 callgsubr
          -16 -4 -13 hhcurveto
          -28 -21 13 26 33 36 36 53 18 hvcurveto
          44 47 hlineto
          -44 12 -11 3 -6 5 -4 10 rlinecurve
          -171 493 rlineto
          -112 hlineto
          -168 -493 -3 -10 -7 -5 -10 -3 rlinecurve
          -48 -12 143 callsubr
          -70 13 34 109 rlineto
          197 hlineto
          35 -109 -71 -13 rlineto
          -47 133 -2 vlineto
          -54 -19 -49 -41 -52 vvcurveto
          -50 43 -24 55 -1 vhcurveto
          35 41 11 17 27 hvcurveto
          -214 386 rmoveto
          -160 hlineto
          hintmask 11110110
          78 252 rlineto
          endchar
        </CharString>
        <CharString name="Aring">
          91 0 47 122 56 344 -20 151 45 379 callgsubr
          -23 64 94 63 hintmask 11110110
          399 305 callgsubr
          -40 18 -30 35 -15 vhcurveto
          hintmask 11111010
          -167 -490 -93 callgsubr
          -171 492 rlineto
          hintmask 11110110
          33 15 22 29 38 vvcurveto
          201 callgsubr
          101 -428 62 callgsubr
        </CharString>
        <CharString name="Atilde">
          18 callsubr
          65 76 -53 -20 46 76 153 callgsubr
          hintmask 1101010010000000
          99 callsubr
          hintmask 1101100100000000
          -168 -493 -93 callgsubr
          -61 640 98 callsubr
          hintmask 1101011010000000
          -37 -33 49 -56 hhcurveto
          hintmask 1101010010000000
          -55 -39 -50 -52 -15 hvcurveto
          35 -19 rlineto
          hintmask 1101011010000000
          24 16 19 21 25 hhcurveto
          hintmask 1101100010000000
          37 33 -49 56 hhcurveto
          hintmask 1101100100000000
          55 39 50 52 15 hvcurveto
          -111 -492 rmoveto
          -160 hlineto
          hintmask 1110010010000000
          78 252 rlineto
          endchar
        </CharString>
        <CharString name="B">
          82 -4 49 -45 45 221 53 207 42 -42 47 318 callsubr
          151 118 -93 131 hintmask 10101110
          497 440 rmoveto
          87 -46 46 -152 vhcurveto
          hintmask 01110101
          -49 -35 -5 -47 hhcurveto
          34 callsubr
          50 27 -4 49 hhcurveto
          hintmask 10101101
          185 55 74 98 83 -57 46 -81 6 hvcurveto
          hintmask 10101110
          62 17 38 47 73 vvcurveto
          -205 -121 rmoveto
          -14 -25 0 1 -25 hvcurveto
          202 vlineto
          2 10 30 2 15 hhcurveto
          68 28 -29 -69 -71 -28 -38 -59 hvcurveto
          hintmask 10101101
          -2 -274 rmoveto
          -21 -25 2 3 -16 hvcurveto
          215 vlineto
          27 27 1 18 hhcurveto
          70 34 -27 -77 -76 -32 -41 -82 hvcurveto
          endchar
        </CharString>
        <CharString name="C">
          280 callgsubr
          hstem
          38 134 vstem
          298 -12 rmoveto
          63 -96 callgsubr
          -182 84 -103 176 hvcurveto
          endchar
        </CharString>
        <CharString name="Cacute">
          280 callgsubr
          hstem
          38 134 vstem
          298 -12 rmoveto
          63 -96 callgsubr
          -182 84 -103 176 hvcurveto
          154 708 -85 callsubr
          endchar
        </CharString>
        <CharString name="Ccaron">
          280 callgsubr
          169 -21 24 -21 hstemhm
          38 134 hintmask 11011000
          298 -12 rmoveto
          63 -96 callgsubr
          -182 84 -103 176 hvcurveto
          hintmask 11101000
          129 777 -41 callgsubr
          hintmask 11011000
          154 callgsubr
        </CharString>
        <CharString name="Ccedilla">
          42 317 callgsubr
          22 49 489 50 hstemhm
          38 134 115 91 vstemhm
          378 -98 rmoveto
          38 -28 25 -40 3 vhcurveto
          -13 hlineto
          hintmask 10111100
          6 20 rlineto
          58 -96 callgsubr
          -169 73 -101 151 -13 hvcurveto
          hintmask 11111100
          -20 -59 rlineto
          26 -1 19 -10 -22 vvcurveto
          -26 -26 -19 -49 -4 vhcurveto
          6 -39 rlineto
          -1 7 6 0 8 hhcurveto
          81 58 37 56 hvcurveto
          endchar
        </CharString>
        <CharString name="Ccircumflex">
          280 callgsubr
          61 320 callgsubr
          38 134 hintmask 11011000
          298 -12 rmoveto
          63 -96 callgsubr
          -182 84 -103 176 hvcurveto
          -116 615 -68 callgsubr
          rlineto
          hintmask 11101000
          86 callsubr
        </CharString>
        <CharString name="Cdotaccent">
          280 callgsubr
          42 124 hstem
          38 134 66 134 vstem
          298 -12 rmoveto
          63 -96 callgsubr
          -182 84 -103 176 hvcurveto
          74 694 -15 callgsubr
        </CharString>
        <CharString name="D">
          126 -6 52 -46 46 478 49 -5 -20 230 callsubr
          215 130 hintmask 10101100
          168 568 rmoveto
          hintmask 01011100
          34 callsubr
          32 55 -5 -1 33 hvcurveto
          hintmask 10101100
          39 callgsubr
          endchar
        </CharString>
        <CharString name="Dcaron">
          126 -6 52 -46 46 478 49 371 callsubr
          119 215 130 hintmask 10100111
          168 568 rmoveto
          hintmask 01010111
          34 callsubr
          32 55 -5 -1 33 hvcurveto
          hintmask 10100111
          39 callgsubr
          hintmask 10101011
          189 711 -41 callgsubr
          hintmask 10100111
          154 callgsubr
        </CharString>
        <CharString name="Dcroat">
          -60 callsubr
        </CharString>
        <CharString name="E">
          50 callgsubr
          211 callsubr
          176 57 vstem
          -106 callgsubr
          endchar
        </CharString>
        <CharString name="Eacute">
          50 callgsubr
          211 callsubr
          176 57 vstem
          -106 callgsubr
          12 278 -85 callsubr
          endchar
        </CharString>
        <CharString name="Ebreve">
          50 callgsubr
          45 78 58 -21 211 callsubr
          176 57 vstem
          -106 callgsubr
          14 310 -70 callsubr
          endchar
        </CharString>
        <CharString name="Ecaron">
          50 callgsubr
          179 -21 24 -21 230 callsubr
          176 57 hintmask 11101110
          -106 callgsubr
          hintmask 11110110
          -13 347 -41 callgsubr
          hintmask 11101110
          154 callgsubr
        </CharString>
        <CharString name="Ecircumflex">
          50 callgsubr
          71 -20 23 -20 230 callsubr
          176 57 hintmask 11101110
          -106 callgsubr
          -258 185 -68 callgsubr
          rlineto
          hintmask 11110110
          86 callsubr
        </CharString>
        <CharString name="Edieresis">
          50 callgsubr
          47 116 230 callsubr
          -110 357 callsubr
          -16 57 hintmask 11101001
          -106 callgsubr
          hintmask 11110110
          -174 255 -85 callgsubr
          endchar
        </CharString>
        <CharString name="Edotaccent">
          50 callgsubr
          52 124 230 callsubr
          -26 134 68 57 hintmask 11101010
          -106 callgsubr
          hintmask 11110110
          -68 264 -15 callgsubr
        </CharString>
        <CharString name="Egrave">
          50 callgsubr
          78 -20 211 callsubr
          176 57 vstem
          -106 callgsubr
          -220 355 -4 callsubr
          endchar
        </CharString>
        <CharString name="Emacron">
          50 callgsubr
          68 68 230 callsubr
          -93 268 1 57 hintmask 11111010
          -106 callgsubr
          -269 218 rmoveto
          hintmask 11110100
          268 68 hlineto
          hintmask 11111010
          -268 hlineto
          endchar
        </CharString>
        <CharString name="Eng">
          168 -188 59 -38 -21 27 -21 182 47 -37 -21 530 49 351 callsubr
          hintmask 01010111
          555 34 rmoveto
          452 vlineto
          12 6 7 12 3 vhcurveto
          52 11 rlineto
          49 -216 -49 vlineto
          60 243 callgsubr
          -12 vvcurveto
          -316 vlineto
          -256 398 -72 callsubr
          13 vvcurveto
          356 vlineto
          hintmask 10001111
          293 -447 -12 -47 -22 -26 -27 -16 rlinecurve
          -26 -17 -36 -9 -29 -3 rrcurveto
          hintmask 00110111
          3 -53 rlineto
          hintmask 01010111
          -3 21 18 -3 26 hhcurveto
          129 39 90 132 hvcurveto
          endchar
        </CharString>
        <CharString name="Eogonek">
          36 -189 63 126 54 204 64 195 51 230 callsubr
          57 91 28 57 hintmask 11111100
          487 -161 rmoveto
          -18 270 callgsubr
          -21 13 26 35 44 38 58 14 hvcurveto
          9 56 6 52 55 vvcurveto
          -57 9 -30 -86 -4 -13 -5 -7 -10 -4 rlinecurve
          -5 -14 -30 -3 -27 hhcurveto
          -88 206 hlineto
          163 -4 rlineto
          69 vlineto
          -163 -6 rlineto
          198 71 vlineto
          hintmask 11111110
          -53 callgsubr
          57 hlineto
          -89 callsubr
          356 -2 vlineto
          hintmask 11111100
          -56 -20 -49 -40 -52 vvcurveto
          -49 43 -25 55 -1 vhcurveto
          36 39 11 17 28 hvcurveto
          endchar
        </CharString>
        <CharString name="Eth">
          -60 callsubr
        </CharString>
        <CharString name="Euro">
          64 339 callgsubr
          110 123 vstem
          493 19 rmoveto
          7 46 2 46 -3 38 -64 5 rcurveline
          -25 -70 -4 -11 -5 -8 -7 -6 rlinecurve
          -10 -11 -24 -11 -24 hhcurveto
          -57 -30 46 85 -11 hvcurveto
          137 48 -140 hlineto
          -1 10 0 11 11 9 0 9 8 vvcurveto
          147 48 -143 hlineto
          98 10 35 41 56 hhcurveto
          21 21 -6 -9 12 hvcurveto
          10 -7 5 -8 4 -17 16 -71 rcurveline
          63 hlineto
          8 50 3 46 -3 41 rrcurveto
          18 -44 -56 9 -48 hhcurveto
          -120 -86 -59 -126 -26 hvcurveto
          -82 -48 75 hlineto
          -1 -12 0 -13 -13 -7 0 -6 -7 vvcurveto
          -79 -48 84 hlineto
          -117 19 72 -61 128 hhcurveto
          52 65 10 18 42 hvcurveto
          endchar
        </CharString>
        <CharString name="Euro.tf">
          -34 339 callgsubr
          62 119 vstem
          -2 169 rmoveto
          68 hlineto
          -121 16 66 -57 122 hhcurveto
          49 61 11 17 42 hvcurveto
          8 45 0 48 -3 38 -64 6 rcurveline
          -21 -68 -4 -15 -6 -9 -8 -7 rlinecurve
          -11 -12 -20 -8 -22 hhcurveto
          -50 -27 44 87 -9 hvcurveto
          121 48 -124 hlineto
          9 0 10 10 10 0 10 9 vvcurveto
          127 48 -124 hlineto
          100 10 32 39 50 hhcurveto
          17 17 -5 -10 11 hvcurveto
          7 -8 2 -7 5 -17 15 -71 rcurveline
          64 hlineto
          8 50 3 46 -3 41 rrcurveto
          19 -42 -52 8 -43 hhcurveto
          -114 -79 -55 -130 -23 hvcurveto
          -68 -48 62 hlineto
          -1 -12 0 -13 -14 -7 0 -6 -6 vvcurveto
          -64 hlineto
          endchar
        </CharString>
        <CharString name="F">
          -2 0 47 202.5 63 204.5 51 211 callsubr
          176 57 vstem
          392 247 rmoveto
          68 vlineto
          -163 -5 rlineto
          207 71 vlineto
          -53 callgsubr
          57 hlineto
          24 callsubr
          -426 -49 hlineto
          -62 callsubr
          -6 callgsubr
          -408 vlineto
          -11 -6 -7 -11 280 callsubr
          303 47 vlineto
          -93 12 rlineto
          -9 1 -7 8 9 vvcurveto
          175 vlineto
          endchar
        </CharString>
        <CharString name="G">
          94 -11 161 callgsubr
          314 callgsubr
          hintmask 10111100
          -94 callsubr
          hintmask 01111100
          63 -51 rlineto
          endchar
        </CharString>
        <CharString name="Gbreve">
          94 -11 161 callgsubr
          35 78 58 -21 314 callgsubr
          hintmask 10111111
          -94 callsubr
          hintmask 01111111
          63 -51 rlineto
          -20 733 -70 callsubr
          endchar
        </CharString>
        <CharString name="Gcircumflex">
          94 -11 161 callgsubr
          61 -20 23 -20 314 callgsubr
          hintmask 10110111
          -94 callsubr
          hintmask 01110111
          63 -51 rlineto
          -292 608 -68 callgsubr
          rlineto
          hintmask 10111011
          86 callsubr
        </CharString>
        <CharString name="Gcommaaccent">
          94 -172 -21 182 161 callgsubr
          hstemhm
          38 138 101 79 45 114 hintmask 11011101
          -94 callsubr
          hintmask 10111111
          63 -51 rlineto
          -135 -106 -99 callsubr
        </CharString>
        <CharString name="Gdotaccent">
          94 -11 161 callgsubr
          42 124 hstemhm
          38 138 79 134 12 114 hintmask 10110101
          -94 callsubr
          hintmask 01110101
          63 -51 rlineto
          hintmask 10111111
          -102 687 -15 callgsubr
        </CharString>
        <CharString name="H">
          193 0 47 212 60 200 331 callgsubr
          222 119 vstem
          -44 callgsubr
          endchar
        </CharString>
        <CharString name="Hbar">
          193 0 47 194 60 71 48 -48 196 -49 49 230 callsubr
          222 119 hintmask 11101110
          39 372 rmoveto
          71 -293 hlineto
          -12 -52 callgsubr
          -56 -11 rlineto
          -47 258 47 vlineto
          -48 331 callsubr
          12 vvcurveto
          162 222 -162 vlineto
          -12 -6 -7 -11 -2 vhcurveto
          -44 -11 rlineto
          -47 255 47 vlineto
          -58 331 callsubr
          12 vvcurveto
          293 71 48 -71 66 vlineto
          11 6 9 11 2 vhcurveto
          58 11 rlineto
          hintmask 11010110
          49 -255 vlineto
          hintmask 11101110
          -49 vlineto
          44 -11 rlineto
          11 -3 6 -7 -12 vvcurveto
          -66 -222 66 vlineto
          12 5 8 12 2 vhcurveto
          48 11 rlineto
          hintmask 11010110
          49 -258 vlineto
          hintmask 11101110
          -49 vlineto
          -36 callgsubr
          6 -6 callgsubr
          -66 -71 vlineto
          190 -119 rmoveto
          71 222 -71 vlineto
          endchar
        </CharString>
        <CharString name="Hcircumflex">
          193 0 47 212 60 200 49 71 -20 23 -20 230 callsubr
          222 119 hintmask 11101110
          -44 callgsubr
          -427 84 -68 callgsubr
          rlineto
          hintmask 11110110
          86 callsubr
        </CharString>
        <CharString name="I">
          163 callgsubr
          -47 callgsubr
          endchar
        </CharString>
        <CharString name="IJ">
          161 0 47 472 331 callgsubr
          202 119 vstem
          -104 callsubr
          265 -11 -74 callsubr
          endchar
        </CharString>
        <CharString name="Iacute">
          163 callgsubr
          -47 callgsubr
          13 177 -85 callsubr
          endchar
        </CharString>
        <CharString name="Iacute_J.NLD">
          170 0 47 472 331 callgsubr
          210 119 vstem
          -104 callsubr
          13 177 -85 callsubr
          260 -188 -74 callsubr
          66 188 -85 callsubr
          endchar
        </CharString>
        <CharString name="Ibreve">
          163 callgsubr
          45 78 58 -21 -47 callgsubr
          15 209 -70 callsubr
          endchar
        </CharString>
        <CharString name="Icircumflex">
          163 callgsubr
          71 -20 23 -20 230 callsubr
          hintmask 11011000
          -104 callsubr
          -257 84 -68 callgsubr
          rlineto
          hintmask 11101000
          86 callsubr
        </CharString>
        <CharString name="Idieresis">
          163 callgsubr
          47 116 hstemhm
          18 112 -20 119 -21 112 hintmask 11101000
          -104 callsubr
          hintmask 11110100
          -173 154 -85 callgsubr
          endchar
        </CharString>
        <CharString name="Idotaccent">
          163 callgsubr
          52 124 hstemhm
          102 134 -126 119 hintmask 11101000
          -104 callsubr
          hintmask 11110000
          -67 163 -15 callgsubr
        </CharString>
        <CharString name="Igrave">
          163 callgsubr
          78 -20 -47 callgsubr
          -219 254 -4 callsubr
          endchar
        </CharString>
        <CharString name="Imacron">
          163 callgsubr
          68 68 hstemhm
          35 268 -193 119 hintmask 11101000
          -104 callsubr
          hintmask 11110000
          -268 117 227 callsubr
          endchar
        </CharString>
        <CharString name="Iogonek">
          -148 -189 63 126 47 472 49 hstemhm
          66 91 -47 119 hintmask 11101000
          266 -161 rmoveto
          hintmask 11110000
          -17 45 rlineto
          -6 -15 -15 -4 -15 hhcurveto
          -27 -20 13 26 33 34 36 52 18 hvcurveto
          hintmask 11101000
          60 47 hlineto
          -57 11 167 callsubr
          13 vvcurveto
          406 vlineto
          12 5 60 callsubr
          49 -268 -49 vlineto
          -62 callsubr
          -6 callgsubr
          -407 vlineto
          -12 -52 callgsubr
          hintmask 11110000
          -8 callgsubr
          130 -2 vlineto
          -52 -19 -47 -41 -52 vvcurveto
          -50 43 -24 55 -1 vhcurveto
          hintmask 11101000
          35 40 11 17 27 hvcurveto
          endchar
        </CharString>
        <CharString name="Itilde">
          163 callgsubr
          47 334 callgsubr
          110 119 hintmask 11010100
          -104 callsubr
          hintmask 11100100
          31 198 98 callsubr
          hintmask 11011100
          -37 -33 49 -56 hhcurveto
          hintmask 11010100
          -55 -39 -50 -52 -15 hvcurveto
          35 -19 rlineto
          hintmask 11011100
          24 16 19 21 25 hhcurveto
          hintmask 11100100
          37 33 -49 56 hhcurveto
          55 39 50 52 15 hvcurveto
          endchar
        </CharString>
        <CharString name="J">
          -168 519 49 hstem
          101 119 vstem
          41 callsubr
          endchar
        </CharString>
        <CharString name="Jacute">
          -168 519 49 hstem
          101 119 vstem
          41 callsubr
          66 188 -85 callsubr
          endchar
        </CharString>
        <CharString name="Jcircumflex">
          -168 519 49 71 320 callgsubr
          101 119 hintmask 10110000
          41 callsubr
          -204 95 -68 callgsubr
          rlineto
          hintmask 11010000
          86 callsubr
        </CharString>
        <CharString name="K">
          113 0 47 460 -20 32 49 318 callsubr
          136 215 hintmask 10111000
          0 callgsubr
          hintmask 11111000
          65 -12 -201 -240 rlineto
          hintmask 10111000
          83 callsubr
          endchar
        </CharString>
        <CharString name="Kcommaaccent">
          113 231 callgsubr
          47 460 -20 32 49 318 callsubr
          84 79 -27 215 hintmask 11011010
          0 callgsubr
          hintmask 11111010
          65 -12 -201 -240 rlineto
          hintmask 11011100
          83 callsubr
          356 -111 -99 callsubr
        </CharString>
        <CharString name="L">
          23 0 55 464 331 callgsubr
          -87 callgsubr
          endchar
        </CharString>
        <CharString name="Lacute">
          23 0 55 464 331 callgsubr
          -87 callgsubr
          -73 498 -85 callsubr
          endchar
        </CharString>
        <CharString name="Lcaron">
          25 0 55 464 331 callgsubr
          -87 callgsubr
          -28 192 44 callsubr
        </CharString>
        <CharString name="Lcommaaccent">
          23 231 callgsubr
          55 464 331 callgsubr
          33 79 -87 callgsubr
          -90 -309 -99 callsubr
        </CharString>
        <CharString name="Ldot">
          27 0 55 208 125 131 331 callgsubr
          121 134 -87 callgsubr
          53 128 rmoveto
          14 callsubr
        </CharString>
        <CharString name="Lslash">
          24 0 55 464 49 hstem
          111 119 vstem
          34 189 rmoveto
          77 30 rlineto
          -140 vlineto
          -12 -6 -7 -13 -2 vhcurveto
          -56 -11 rlineto
          -47 441 vlineto
          13 65 1 66 59 vvcurveto
          -59 8 -34 -111 -4 -12 -7 -7 -11 -4 rlinecurve
          -6 -13 -25 -3 -32 hhcurveto
          -76 207 hlineto
          148 59 rlineto
          62 vlineto
          -148 -62 rlineto
          165 vlineto
          12 6 7 11 2 vhcurveto
          75 12 rlineto
          49 -286 -49 vlineto
          57 243 callgsubr
          -11 vvcurveto
          -209 vlineto
          -77 -30 rlineto
          endchar
        </CharString>
        <CharString name="M">
          335 0 47 439 82 -49 49 hstemhm
          18 218 -218 790 hintmask 10101000
          673 485 rmoveto
          -2 12 6 9 13 2 65 11 rcurveline
          49 -242 vlineto
          -99 -394 -112 394 rlineto
          -241 -49 hlineto
          63 -11 12 -2 6 -9 -2 -12 rlinecurve
          hintmask 11010000
          -49 -406 -1 -11 -6 -7 -11 -2 rlinecurve
          -55 -12 rlineto
          -47 218 47 vlineto
          -78 11 48 424 140 -461 rlineto
          93 hlineto
          118 465 61 -428 -67 -11 rlineto
          -47 257 47 vlineto
          -54 12 -11 2 -6 7 -2 11 rlinecurve
          endchar
        </CharString>
        <CharString name="N">
          168 283 callgsubr
          hstem
          110 68 309 68 vstem
          -93 callsubr
          endchar
        </CharString>
        <CharString name="NULL">
          endchar
        </CharString>
        <CharString name="Nacute">
          168 283 callgsubr
          hstem
          110 68 309 68 vstem
          -93 callsubr
          -97 188 -85 callsubr
          endchar
        </CharString>
        <CharString name="Ncaron">
          168 283 callgsubr
          179 -21 24 -21 351 callsubr
          hintmask 11011100
          -93 callsubr
          hintmask 11101100
          -122 257 -41 callgsubr
          hintmask 11011100
          154 callgsubr
        </CharString>
        <CharString name="Ncommaaccent">
          168 231 callgsubr
          47 472 49 hstem
          110 68 150 79 80 68 vstem
          -93 callsubr
          -166 -619 -99 callsubr
        </CharString>
        <CharString name="Ntilde">
          168 283 callgsubr
          47 76 -53 -20 46 76 351 callsubr
          hintmask 11010110
          -93 callsubr
          hintmask 11100110
          -79 209 -28 callgsubr
        </CharString>
        <CharString name="O">
          165 callsubr
          hstem
          135 callgsubr
          vstem
          -101 callsubr
          endchar
        </CharString>
        <CharString name="OE">
          299 -8 49 -41 54 204 64 195 51 -42 49 hstemhm
          38 130 205 118 177 56 hintmask 10101110
          297 41 rmoveto
          -87 -42 70 170 174 44 71 88 24 27 -6 -16 22 hvcurveto
          -439 vlineto
          -18 -23 -26 -6 -27 hhcurveto
          hintmask 01110111
          445 -41 rmoveto
          9 56 5 52 55 vvcurveto
          -56 9 -30 -86 -5 -13 -4 -6 -11 -5 rlinecurve
          -5 -14 -30 -3 -26 hhcurveto
          -89 206 hlineto
          163 -4 rlineto
          69 vlineto
          -163 -6 rlineto
          198 286 callsubr
          19 -68 rcurveline
          56 hlineto
          5 52 0 49 -6 49 rrcurveto
          -347 hlineto
          hintmask 10101110
          5 -25 -26 2 -24 hhcurveto
          -168 -95 -110 -192 -180 79 -101 171 30 28 3 6 27 hvcurveto
          -1 vlineto
          endchar
        </CharString>
        <CharString name="Oacute">
          165 callsubr
          hstem
          135 callgsubr
          vstem
          -101 callsubr
          146 169 -85 callsubr
          endchar
        </CharString>
        <CharString name="Obreve">
          165 callsubr
          34 78 58 -21 hstem
          135 callgsubr
          vstem
          -101 callsubr
          148 201 -70 callsubr
          endchar
        </CharString>
        <CharString name="Ocircumflex">
          165 callsubr
          60 320 callgsubr
          135 callgsubr
          hintmask 11011100
          -101 callsubr
          -124 76 -68 callgsubr
          rlineto
          hintmask 11101100
          86 callsubr
        </CharString>
        <CharString name="Odieresis">
          165 callsubr
          36 116 hstemhm
          38 130 -28 357 callsubr
          -29 131 hintmask 11010010
          -101 callsubr
          hintmask 11101100
          -40 146 -85 callgsubr
          endchar
        </CharString>
        <CharString name="Ograve">
          165 callsubr
          67 -20 hstem
          135 callgsubr
          vstem
          -101 callsubr
          -86 246 -4 callsubr
          endchar
        </CharString>
        <CharString name="Ohungarumlaut">
          165 callsubr
          52 -20 22 -20 hstemhm
          135 callgsubr
          hintmask 11011100
          -101 callsubr
          -103 72 87 callgsubr
        </CharString>
        <CharString name="Omacron">
          165 callsubr
          57 68 hstemhm
          38 130 -11 268 -12 131 hintmask 11110100
          -101 callsubr
          hintmask 11101000
          -135 109 227 callsubr
          endchar
        </CharString>
        <CharString name="Oslash">
          96 -11 50 -16 -21 526 51 56 -20 hstemhm
          36 124 257 125 hintmask 10111100
          542 294 rmoveto
          112 -31 85 -66 47 vhcurveto
          34 69 -53 28 -34 -70 rlineto
          9 -28 -31 5 -35 hhcurveto
          -167 -95 -111 -194 hvcurveto
          hintmask 01111100
          -113 32 -86 67 -47 vhcurveto
          -40 -80 53 -27 41 81 rlineto
          hintmask 10111100
          -9 26 30 -4 34 hhcurveto
          168 95 112 193 hvcurveto
          -382 -13 rmoveto
          176 45 71 85 31 25 -9 -20 19 vhcurveto
          -181 -387 rlineto
          -16 39 -8 56 74 vvcurveto
          127 -242 rmoveto
          -30 -24 9 18 -19 hvcurveto
          181 387 rlineto
          15 -39 7 -54 -72 vvcurveto
          -176 -46 -73 -84 vhcurveto
          endchar
        </CharString>
        <CharString name="Otilde">
          165 callsubr
          36 334 callgsubr
          135 callgsubr
          hintmask 11010110
          -101 callsubr
          hintmask 11100110
          164 190 -28 callgsubr
        </CharString>
        <CharString name="P">
          40 0 47 160 49 268 44 -44 48 230 callsubr
          155 122 hintmask 11011100
          229 520 rmoveto
          1 12 12 3 28 hhcurveto
          68 35 -35 -84 -115 -45 -34 -57 -22 -14 1 2 -17 hvcurveto
          106 -212 rmoveto
          -90 12 rlineto
          -9 1 -7 8 9 vvcurveto
          132 vlineto
          -1 18 18 -1 19 hhcurveto
          140 82 74 127 105 -48 59 -161 hvcurveto
          hintmask 11101100
          -58 -32 -4 -36 hhcurveto
          -136 -49 hlineto
          59 -12 rlineto
          10 -2 6 -8 -8 vvcurveto
          -412 vlineto
          -10 -7 -7 -10 280 callsubr
          300 vlineto
          endchar
        </CharString>
        <CharString name="Q">
          96 -153 81 95 -21 525 52 hstem
          135 callgsubr
          vstem
          498 -153 rmoveto
          46 43 24 20 19 hvcurveto
          -11 40 rlineto
          -1 -11 -13 -2 -16 hhcurveto
          -40 -33 14 24 -38 hvcurveto
          -25 15 -22 12 -27 9 rrcurveto
          110 35 64 104 153 vvcurveto
          173 -77 112 -167 -167 -95 -114 -191 -171 75 -111 160 -3 vhcurveto
          -42 85 31 -100 109 hhcurveto
          -206 680 rmoveto
          82 39 -72 -167 -173 -44 -74 -80 -81 -40 72 168 173 43 73 81 hvcurveto
          endchar
        </CharString>
        <CharString name="R">
          104 0 178 callsubr
          160 125 hintmask 11101100
          -90 callgsubr
          hintmask 11011100
          -21 callsubr
          endchar
        </CharString>
        <CharString name="Racute">
          104 0 178 callsubr
          160 125 hintmask 11101100
          -90 callgsubr
          hintmask 11011100
          -21 callsubr
          395 696 -85 callsubr
          endchar
        </CharString>
        <CharString name="Rcaron">
          104 0 47 197 47 234 48 371 callsubr
          118 160 125 hintmask 11100111
          -90 callgsubr
          hintmask 11011011
          -21 callsubr
          370 765 -41 callgsubr
          hintmask 11100111
          154 callgsubr
        </CharString>
        <CharString name="Rcommaaccent">
          104 231 callgsubr
          178 callsubr
          80 79 1 125 hintmask 11110101
          -90 callgsubr
          hintmask 11101110
          -21 callsubr
          352 -111 -99 callsubr
        </CharString>
        <CharString name="S">
          -10 -12 49 494 48 hstem
          50 112 160 119 vstem
          -101 callgsubr
          -23 44 67 -21 76 hhcurveto
          151 59 88 82 hvcurveto
          endchar
        </CharString>
        <CharString name="Sacute">
          -10 -12 49 494 48 hstem
          50 112 160 119 vstem
          -101 callgsubr
          -23 44 67 -21 76 hhcurveto
          151 59 88 82 hvcurveto
          -50 538 -85 callsubr
          endchar
        </CharString>
        <CharString name="Scaron">
          -10 -12 49 494 48 168 -21 24 -21 hstemhm
          50 112 160 119 hintmask 11011100
          -101 callgsubr
          -23 44 67 -21 76 hhcurveto
          151 59 88 82 hvcurveto
          hintmask 11101100
          -75 607 -41 callgsubr
          hintmask 11011100
          154 callgsubr
        </CharString>
        <CharString name="Scedilla">
          -10 317 callgsubr
          20 49 494 48 hstemhm
          50 112 58 91 11 119 hintmask 10111010
          -101 callgsubr
          hintmask 10111110
          37 -19 53 -18 61 -5 rrcurveto
          hintmask 11111110
          -20 -59 -75 callsubr
          hintmask 10111110
          6 20 rlineto
          hintmask 10111010
          146 59 88 82 hvcurveto
          endchar
        </CharString>
        <CharString name="Scircumflex">
          -10 -12 49 494 48 60 320 callgsubr
          50 112 160 119 hintmask 11011100
          -101 callgsubr
          -23 44 67 -21 76 hhcurveto
          151 59 88 82 hvcurveto
          -320 445 -68 callgsubr
          rlineto
          hintmask 11101100
          86 callsubr
        </CharString>
        <CharString name="Scommaaccent">
          -10 -172 -21 181 49 494 48 hstem
          50 112 44 79 37 119 vstem
          -101 callgsubr
          -23 44 67 -21 76 hhcurveto
          151 59 88 82 hvcurveto
          -156 -269 -99 callsubr
        </CharString>
        <CharString name="T">
          88 0 47 325 160 callsubr
          139 65 hintmask 10101100
          -18 callsubr
          hintmask 11001100
          278 callgsubr
          hintmask 10111100
          134 callgsubr
          hintmask 11011100
          161 callsubr
          hintmask 10101100
          -17 callgsubr
          endchar
        </CharString>
        <CharString name="Tbar">
          88 0 47 176 56 93 160 callsubr
          139 65 hintmask 11010110
          137 223 rmoveto
          91 -142 hlineto
          -12 316 callgsubr
          -86 -14 rlineto
          -47 326 47 vlineto
          -85 14 19 callgsubr
          -6 6 12 vvcurveto
          142 90 56 -90 238 34 vlineto
          24 21 -3 -4 13 hvcurveto
          10 -4 5 -6 2 -10 rrcurveto
          hintmask 11100110
          278 callgsubr
          hintmask 11011110
          134 callgsubr
          hintmask 11101110
          161 callsubr
          hintmask 11010110
          29 117 2 11 5 6 11 4 rlinecurve
          4 12 22 3 24 hhcurveto
          35 -238 -91 hlineto
          endchar
        </CharString>
        <CharString name="Tcaron">
          88 0 47 325 196 -51 51 179 -21 24 -21 276 callsubr
          139 65 hintmask 10101011
          -18 callsubr
          hintmask 11001011
          278 callgsubr
          hintmask 10101111
          134 callgsubr
          hintmask 11001111
          161 callsubr
          hintmask 10110011
          -17 callgsubr
          286 765 -41 callgsubr
          hintmask 10101011
          154 callgsubr
        </CharString>
        <CharString name="Thorn">
          40 0 47 72 48 230 51 71 49 hstem
          106 117 151 125 vstem
          301 hmoveto
          47 vlineto
          -60 11 -63 callgsubr
          43 vlineto
          -3 24 25 -1 33 hhcurveto
          125 69 54 121 106 -57 48 -113 -33 -37 -4 -3 -36 hvcurveto
          45 vlineto
          12 6 8 12 2 vhcurveto
          60 11 rlineto
          49 -263 -49 vlineto
          50 -11 rlineto
          11 -3 7 -7 -12 vvcurveto
          -407 vlineto
          -12 -52 callgsubr
          -50 -11 rlineto
          -47 vlineto
          247 167 rmoveto
          -18 -22 1 3 -22 hvcurveto
          222 vlineto
          3 20 20 1 19 hhcurveto
          68 24 -46 -62 -88 -35 -34 -54 hvcurveto
          endchar
        </CharString>
        <CharString name="U">
          138 231 callsubr
          hstem
          88 122 248 76 vstem
          -106 callsubr
          endchar
        </CharString>
        <CharString name="Uacute">
          163 callsubr
          hstem
          88 122 248 76 vstem
          -106 callsubr
          -124 128 -85 callsubr
          endchar
        </CharString>
        <CharString name="Ubreve">
          163 callsubr
          45 78 58 -21 hstem
          88 122 248 76 vstem
          -106 callsubr
          -122 160 -70 callsubr
          endchar
        </CharString>
        <CharString name="Ucircumflex">
          163 callsubr
          71 320 callgsubr
          88 122 248 76 hintmask 11011100
          -106 callsubr
          -394 35 -68 callgsubr
          rlineto
          hintmask 11101100
          86 callsubr
        </CharString>
        <CharString name="Udieresis">
          163 callsubr
          47 116 hstemhm
          88 122 -40 357 callsubr
          -14 76 hintmask 11110010
          -106 callsubr
          hintmask 11101100
          -310 105 -85 callgsubr
          endchar
        </CharString>
        <CharString name="Ugrave">
          163 callsubr
          78 -20 hstem
          88 122 248 76 vstem
          -106 callsubr
          -356 205 -4 callsubr
          endchar
        </CharString>
        <CharString name="Uhungarumlaut">
          163 callsubr
          63 -20 22 -20 hstemhm
          88 122 248 76 hintmask 11011100
          -106 callsubr
          -373 31 87 callgsubr
        </CharString>
        <CharString name="Umacron">
          163 callsubr
          68 68 hstemhm
          88 122 -23 101 92 75 3 76 hintmask 11110100
          380 568 rmoveto
          -49 vlineto
          hintmask 11110010
          61 -11 rlineto
          12 -2 5 -6 callgsubr
          -282 vlineto
          -99 -32 -64 -93 -85 -38 55 109 vhcurveto
          280 vlineto
          12 6 8 12 2 vhcurveto
          hintmask 11101010
          60 12 rlineto
          49 vlineto
          hintmask 11110010
          -255 -49 hlineto
          38 -10 rlineto
          11 -3 296 callgsubr
          -271 vlineto
          -157 72 -68 154 136 84 61 158 vhcurveto
          -40 callsubr
          vlineto
          hintmask 11101100
          -405 68 227 callsubr
          endchar
        </CharString>
        <CharString name="Uogonek">
          137 -189 63 117 336 callsubr
          hstem
          88 122 47 91 110 76 vstem
          257 -114 rmoveto
          -49 43 -25 56 -1 vhcurveto
          34 40 11 17 28 hvcurveto
          -18 358 callgsubr
          -17 -4 -14 hhcurveto
          -28 -19 12 26 37 41 34 65 42 hvcurveto
          53 33 27 62 90 vvcurveto
          -40 callsubr
          -212 -49 vlineto
          61 -11 rlineto
          12 -2 5 -6 callgsubr
          -282 vlineto
          -99 -32 -64 -93 -85 -38 55 109 vhcurveto
          280 vlineto
          12 6 8 12 2 vhcurveto
          60 12 rlineto
          49 -255 -49 vlineto
          38 -10 rlineto
          11 -3 296 callgsubr
          -271 vlineto
          -157 72 -68 154 13 12 1 1 11 vhcurveto
          -2 vlineto
          -42 -18 -51 -35 -52 vvcurveto
          endchar
        </CharString>
        <CharString name="Uring">
          163 callsubr
          29 47 95 47 hstemhm
          88 122 0 66 91 64 27 76 hintmask 11011001
          -106 callsubr
          hintmask 11110111
          -161 124 74 callgsubr
        </CharString>
        <CharString name="Utilde">
          163 callsubr
          47 334 callgsubr
          88 122 248 76 hintmask 11010110
          -106 callsubr
          hintmask 11100110
          -106 149 -28 callgsubr
        </CharString>
        <CharString name="V">
          91 -2 106 -85 -21 507 -20 34 49 hstemhm
          -6 584 -206 206 hintmask 01011000
          240 -2 rmoveto
          107 hlineto
          hintmask 10010100
          163 492 3 10 7 5 10 3 rlinecurve
          48 11 rlineto
          49 -206 -49 vlineto
          72 -14 -125 -401 rlineto
          hintmask 01111000
          -141 401 rlineto
          hintmask 01011000
          72 14 rlineto
          49 -256 -49 vlineto
          45 -11 10 -3 6 -5 4 -10 rlinecurve
          endchar
        </CharString>
        <CharString name="W">
          -51 callsubr
          endchar
        </CharString>
        <CharString name="Wacute">
          -51 callsubr
          148 349 -85 callsubr
          endchar
        </CharString>
        <CharString name="Wcircumflex">
          116 callgsubr
          71 -20 23 -20 186 callgsubr
          hintmask 0101011110000000
          -34 callsubr
          hintmask 1011011110000000
          230 callgsubr
          hintmask 1001011110000000
          -14 callgsubr
          hintmask 0111011110000000
          -110 402 rlineto
          hintmask 0101011110000000
          -33 callgsubr
          -122 256 -68 callgsubr
          rlineto
          hintmask 0101101110000000
          86 callsubr
        </CharString>
        <CharString name="Wdieresis">
          116 callgsubr
          47 116 hstemhm
          -3 250 22 112 -62 243 -103 112 66 198 hintmask 0101101011000000
          -34 callsubr
          hintmask 1011100101000000
          230 callgsubr
          hintmask 1001110101000000
          -14 callgsubr
          hintmask 0111111011000000
          -110 402 rlineto
          hintmask 0101111011000000
          -33 callgsubr
          hintmask 0101101011000000
          -38 326 -85 callgsubr
          endchar
        </CharString>
        <CharString name="Wgrave">
          116 callgsubr
          78 -20 186 callgsubr
          hintmask 01011111
          -34 callsubr
          hintmask 10111111
          230 callgsubr
          hintmask 10011111
          -14 callgsubr
          hintmask 01111111
          -110 402 rlineto
          hintmask 01011111
          -33 callgsubr
          -84 426 -4 callsubr
          endchar
        </CharString>
        <CharString name="X">
          73 0 47 459 -20 33 49 hstemhm
          7 209 -199 253 73 195 hintmask 10110100
          554 hmoveto
          47 vlineto
          -42 11 -9 2 -7 4 -5 9 rlinecurve
          -154 234 132 186 5 8 7 4 9 3 rlinecurve
          48 11 rlineto
          49 -195 -49 vlineto
          hintmask 11101100
          63 -13 -102 -155 -95 155 rlineto
          hintmask 10101100
          61 13 rlineto
          49 -253 -49 vlineto
          41 -11 10 -3 6 -5 5 -8 rlinecurve
          142 -219 rlineto
          hintmask 10110100
          -140 -200 -6 -10 -6 -3 -9 -2 rlinecurve
          -53 -11 rlineto
          -47 209 47 vlineto
          -70 12 110 168 104 -168 -60 -12 rlineto
          -47 vlineto
          endchar
        </CharString>
        <CharString name="Y">
          -36 callsubr
          endchar
        </CharString>
        <CharString name="Yacute">
          -36 callsubr
          301 696 -85 callsubr
          endchar
        </CharString>
        <CharString name="Ycircumflex">
          194 callgsubr
          71 320 callgsubr
          215 122 5 198 hintmask 10101100
          22 callsubr
          hintmask 10101010
          -25 callsubr
          hintmask 11101100
          -111 212 rlineto
          hintmask 10101100
          -58 callsubr
          31 603 -68 callgsubr
          rlineto
          hintmask 10110100
          86 callsubr
        </CharString>
        <CharString name="Ydieresis">
          194 callgsubr
          47 116 hstemhm
          130 112 -27 122 -17 112 -90 198 hintmask 10110100
          22 callsubr
          hintmask 10110001
          -25 callsubr
          hintmask 11110100
          -111 212 rlineto
          hintmask 10110100
          -58 callsubr
          hintmask 10111010
          115 673 -85 callgsubr
          endchar
        </CharString>
        <CharString name="Ygrave">
          194 callgsubr
          78 -20 hstemhm
          215 122 5 198 hintmask 10111000
          22 callsubr
          hintmask 10110100
          -25 callsubr
          hintmask 11111000
          -111 212 rlineto
          hintmask 10111000
          -58 callsubr
          69 773 -4 callsubr
          endchar
        </CharString>
        <CharString name="Z">
          -22 callsubr
          endchar
        </CharString>
        <CharString name="Zacute">
          -22 callsubr
          374 696 -85 callsubr
          endchar
        </CharString>
        <CharString name="Zcaron">
          26 0 55 334 180 -51 51 178 -21 24 -21 hstemhm
          20 454 hintmask 10101100
          -44 callsubr
          hintmask 11001100
          -10 -56 -4 -65 3 -59 rrcurveto
          66 hlineto
          hintmask 10110100
          13 callgsubr
          349 765 -41 callgsubr
          hintmask 10101100
          154 callgsubr
        </CharString>
        <CharString name="Zdotaccent">
          26 0 55 334 180 -51 51 51 124 hstemhm
          204 134 hintmask 10101000
          -44 callsubr
          hintmask 11001000
          -10 -56 -4 -65 3 -59 rrcurveto
          66 hlineto
          hintmask 10111000
          13 callgsubr
          294 682 -15 callgsubr
        </CharString>
        <CharString name="__periodcentered.CAT">
          -405 213 124 hstem
          -30 134 vstem
          104 275 221 callgsubr
        </CharString>
        <CharString name="__periodcentered.CAT.case">
          -482 264 124 hstem
          -153 133 vstem
          -20 326 rmoveto
          37 -26 25 -40 -41 -26 -25 -37 -38 26 -24 41 40 26 24 38 vhcurveto
          endchar
        </CharString>
        <CharString name="a">
          -73 callgsubr
          194 callsubr
          hintmask 10111100
          -95 callgsubr
          hintmask 01111100
          -100 callsubr
          hintmask 10111100
          211 callgsubr
          endchar
        </CharString>
        <CharString name="aacute">
          -73 callgsubr
          229 -20 194 callsubr
          hintmask 10111110
          -95 callgsubr
          hintmask 01111110
          -100 callsubr
          hintmask 10111110
          211 callgsubr
          34 464 -83 callsubr
        </CharString>
        <CharString name="abreve">
          -73 callgsubr
          48 78 194 callsubr
          hintmask 10111110
          -95 callgsubr
          hintmask 01111110
          -100 callsubr
          hintmask 10111110
          211 callgsubr
          216 598 -72 callgsubr
        </CharString>
        <CharString name="acircumflex">
          -73 callgsubr
          217 -20 194 callsubr
          hintmask 10111110
          -95 callgsubr
          hintmask 01111110
          -100 callsubr
          hintmask 10111110
          211 callgsubr
          -43 467 -69 callsubr
        </CharString>
        <CharString name="acute">
          -122 653 -20 hstem
          116 206 vstem
          146 456 -83 callsubr
        </CharString>
        <CharString name="acutecomb">
          653 -20 hstem
          -66 206 vstem
          -36 456 -83 callsubr
        </CharString>
        <CharString name="acutecomb.case">
          607 162 hstem
          -90 237 vstem
          147 696 -85 callsubr
          endchar
        </CharString>
        <CharString name="adieresis">
          -73 callgsubr
          55 115 359 callsubr
          -70 251 callsubr
          -92 110 hintmask 1011110010000000
          -95 callgsubr
          hintmask 0111110010000000
          -100 callsubr
          hintmask 1011110010000000
          211 callgsubr
          hintmask 1011101100000000
          40 545 -86 callsubr
        </CharString>
        <CharString name="ae">
          266 callsubr
          279 callgsubr
          111 140 106 hintmask 1001011110000000
          46 callsubr
          hintmask 0111101110000000
          113 callsubr
          hintmask 1001011110000000
          127 callsubr
          hintmask 0111011110000000
          140 callgsubr
          endchar
        </CharString>
        <CharString name="agrave">
          -73 callgsubr
          229 -20 194 callsubr
          hintmask 10111110
          -95 callgsubr
          hintmask 01111110
          -100 callsubr
          hintmask 10111110
          211 callgsubr
          16 661 -28 callsubr
        </CharString>
        <CharString name="amacron">
          -73 callgsubr
          70 67 359 callsubr
          -58 259 -80 110 hintmask 10111101
          -95 callgsubr
          hintmask 01111101
          -100 callsubr
          hintmask 10111101
          211 callgsubr
          hintmask 10111010
          -60 502 149 callgsubr
        </CharString>
        <CharString name="ampersand">
          115 -11 53 -49 65 -44 -21 274 50 221 40 hstemhm
          33 104 -51 107 112 98 -31 197 hintmask 1001101100000000
          193 458 rmoveto
          49 22 31 38 33 19 -27 -50 -45 -18 -47 -41 -35 vhcurveto
          -43 60 -10 31 33 vvcurveto
          56 -416 rmoveto
          hintmask 1001110100000000
          -70 -42 44 66 43 18 25 23 20 hvcurveto
          36 -47 63 -77 57 -52 rrcurveto
          hintmask 1001101100000000
          -16 -28 -31 -6 -26 hhcurveto
          hintmask 1001110010000000
          320 225 rmoveto
          50 -197 -50 vlineto
          57 -11 rlineto
          12 -3 2 -9 -11 vvcurveto
          -30 -7 -38 -20 -31 vhcurveto
          -48 50 -57 66 -40 50 rrcurveto
          hintmask 1001101100000000
          87 29 45 54 70 vvcurveto
          77 -53 48 -94 -104 -66 -60 -86 -51 23 -47 39 -54 vhcurveto
          hintmask 1001110100000000
          -53 -17 -62 -37 -90 vvcurveto
          -103 81 -44 107 56 54 15 29 40 vhcurveto
          hintmask 0011110100000000
          -30 39 31 -10 34 hhcurveto
          30 36 8 8 25 hvcurveto
          hintmask 0101110010000000
          49 vlineto
          -52 -22 5 40 -45 hvcurveto
          42 38 19 45 9 48 2 13 1 5 12 4 rrcurveto
          endchar
        </CharString>
        <CharString name="aogonek">
          -36 -189 63 118 65 -40 -21 175 44.5 132.5 76 359 callsubr
          82 90 -51 110 hintmask 10111001
          425 -161 rmoveto
          hintmask 10111010
          -16 45 rlineto
          -6 -15 291 callsubr
          hintmask 11011101
          13 3 11 3 8 2 rrcurveto
          -100 callsubr
          211 callgsubr
          hintmask 11011010
          52 44 18 33 29 hvcurveto
          hintmask 10111010
          10 -27 18 -15 26 -5 rrcurveto
          -1 vlineto
          -50 343 callsubr
          hintmask 10111001
          34 40 11 17 26 hvcurveto
          hintmask 11011101
          -231 218 rmoveto
          -34 -15 17 32 36 20 24 51 3 hvcurveto
          50 4 rlineto
          -92 vlineto
          -15 -19 -27 -9 -26 hhcurveto
          endchar
        </CharString>
        <CharString name="approxequal">
          -9 77 80 -30 80 32 80 -30 80 hstemhm
          46 381 hintmask 10011000
          427 175 rmoveto
          -33 27 rlineto
          -25 -20 -26 -20 -28 hhcurveto
          hintmask 01011000
          105 callgsubr
          hintmask 10011000
          226 callgsubr
          hintmask 01101000
          162 vmoveto
          -33 27 rlineto
          -25 -20 -26 -20 -28 hhcurveto
          hintmask 01011000
          105 callgsubr
          hintmask 01101000
          226 callgsubr
          endchar
        </CharString>
        <CharString name="aring">
          -73 callgsubr
          40 45 92 45 359 callsubr
          -36 64 88 64 -59 110 hintmask 1011111001000000
          -95 callgsubr
          hintmask 0111111001000000
          -100 callsubr
          hintmask 1011111001000000
          211 callgsubr
          hintmask 1011110110000000
          178 563 -45 callgsubr
        </CharString>
        <CharString name="asciicircum">
          -23 278 286 hstem
          31 403 vstem
          31 310 rmoveto
          41 -32 154 185 160 -185 48 32 -164 254 -87 -7 rlineto
          endchar
        </CharString>
        <CharString name="asciitilde">
          -11 158 80 -30 80 hstemhm
          45 381 hintmask 10100000
          426 256 rmoveto
          -33 27 rlineto
          -25 -20 -26 -20 -28 hhcurveto
          hintmask 01100000
          105 callgsubr
          hintmask 10100000
          226 callgsubr
          endchar
        </CharString>
        <CharString name="asterisk">
          -44 422 -20 96 -20 174 -20 hstem
          179 84 vstem
          236 498 20 callgsubr
        </CharString>
        <CharString name="asterisk.gujr">
          -44 508 -20 149 -20 hstem
          179 84 vstem
          236 534 20 callgsubr
        </CharString>
        <CharString name="at">
          286 -191 60 111 86 -80 71 273 62 115 60 hstemhm
          33 75 90 91 166 80 134 66 hintmask 1101111110000000
          334 -191 rmoveto
          76 71 21 34 41 hvcurveto
          -18 38 rlineto
          -19 -29 -67 -14 -54 hhcurveto
          -135 -111 89 196 214 134 139 178 118 131 -61 -180 hvcurveto
          hintmask 1011111110000000
          -137 -77 -72 -36 -15 -6 12 36 76 33 154 7 36 vhcurveto
          -63 20 -21 -25 rlineto
          19 -35 -29 7 -28 hhcurveto
          -125 -76 -133 -118 hvcurveto
          hintmask 1101111110000000
          -101 54 -60 58 70 54 89 91 32 vhcurveto
          hintmask 1011111110000000
          -7 -45 -4 -31 -19 vvcurveto
          -49 20 -30 35 66 159 102 203 177 -120 99 -165 -227 -192 -186 -255 2 vhcurveto
          hintmask 1101111110000000
          -191 2 111 -126 188 hhcurveto
          117 430 rmoveto
          -102 -31 -50 -71 -36 hhcurveto
          -31 -14 55 50 77 32 82 64 26 33 -14 -24 22 hvcurveto
          -4 -16 -5 -18 -6 -19 rrcurveto
          endchar
        </CharString>
        <CharString name="atilde">
          -73 callgsubr
          46 78 -27 78 -24 -20 194 callsubr
          hintmask 1011001110000000
          -95 callgsubr
          hintmask 0111001110000000
          -100 callsubr
          hintmask 1011001110000000
          211 callgsubr
          hintmask 1011100110000000
          229 583 97 callsubr
          hintmask 1011010110000000
          -20 callgsubr
          hintmask 1011100110000000
          53 callgsubr
        </CharString>
        <CharString name="b">
          -7 -8 48 316 69 215 -20 35 -20 hstemhm
          59 114 152 121 hintmask 11011100
          59 20 rmoveto
          -12 29 67 -16 63 hhcurveto
          148 80 88 148 370 callgsubr
          hvcurveto
          hintmask 11101100
          261 vlineto
          hintmask 11011100
          -16 15 -48 -1 -68 -9 -49 -13 rlinecurve
          -45 vlineto
          50 -8 rlineto
          11 -2 6 -7 -12 vvcurveto
          167 -518 rmoveto
          -22 -18 5 7 -13 hvcurveto
          284 vlineto
          13 19 22 7 24 hhcurveto
          56 33 -37 -114 -2 hvcurveto
          -116 -1 -34 -49 -64 hhcurveto
          endchar
        </CharString>
        <CharString name="backslash">
          -118 633 -20 hstem
          21 324 vstem
          345 -105 rmoveto
          -233 738 rlineto
          -91 hlineto
          233 -738 rlineto
          endchar
        </CharString>
        <CharString name="bar">
          -251 -114 806 hstem
          74 86.5 vstem
          74 -114 rmoveto
          86 hlineto
          1 806 rlineto
          -87 hlineto
          endchar
        </CharString>
        <CharString name="braceleft">
          366 callgsubr
          101 261 callgsubr
          50 9 69 53 vvcurveto
          68 -46 31 -66 13 vhcurveto
          66 13 46 28 67 53 -9 69 50 vvcurveto
          57 22 24 56 12 vhcurveto
          48 12 -7 50 rlineto
          -25 -34 -2 -3 -29 hvcurveto
          -95 -7 -41 -48 -75 vvcurveto
          hintmask 01100000
          -67 14 -63 -52 vvcurveto
          -47 -9 -31 -84 -7 vhcurveto
          -69 vlineto
          84 -8 9 -31 -47 -52 -14 -62 -68 vvcurveto
          295 callsubr
        </CharString>
        <CharString name="braceleft.gujr">
          -157 225 70 hstemhm
          87 105 -91 261 callgsubr
          43 9 58 46 vvcurveto
          67 -46 32 -66 12 vhcurveto
          66 13 46 28 67 46 -9 58 43 vvcurveto
          57 22 24 56 13 vhcurveto
          48 11 -7 50 rlineto
          -25 -34 -2 -2 -29 hvcurveto
          hintmask 11000000
          -95 -8 -41 -47 -76 vvcurveto
          hintmask 10100000
          -58 14 -54 -44 vvcurveto
          -47 -9 -31 -84 -7 vhcurveto
          -70 vlineto
          84 -7 9 -32 -46 -45 -14 -53 -59 vvcurveto
          hintmask 11000000
          295 callsubr
        </CharString>
        <CharString name="braceright">
          366 callgsubr
          129 99 hintmask 10100000
          107 -148 rmoveto
          94 8 42 47 76 vvcurveto
          hintmask 01100000
          67 -15 63 52 vvcurveto
          47 9 31 85 8 vhcurveto
          69 vlineto
          -85 7 -9 31 47 52 15 63 67 189 callgsubr
          -50 -8 -70 -53 vvcurveto
          -67 45 -30 66 -12 vhcurveto
          -66 -13 -45 -30 -68 -53 8 -69 -51 322 callgsubr
          hintmask 10100000
          25 34 2 2 29 hvcurveto
          endchar
        </CharString>
        <CharString name="braceright.gujr">
          -157 225 70 hstem
          129 99 vstem
          107 -148 rmoveto
          94 8 42 47 76 58 -15 54 45 vvcurveto
          46 9 32 85 7 vhcurveto
          70 vlineto
          -85 7 -9 31 47 44 15 55 57 189 callgsubr
          -43 -8 -59 -46 vvcurveto
          -67 45 -29 66 -12 vhcurveto
          -66 -14 -45 -30 -67 -46 8 -59 -43 322 callgsubr
          25 34 2 2 29 hvcurveto
          endchar
        </CharString>
        <CharString name="bracketleft">
          210 callsubr
          746.5 52 219 callgsubr
          694 vlineto
          13 7 7 13 1 vhcurveto
          89 10 rlineto
          47 vlineto
          -61 8 -78 4 -54 -1 -15 -15 rcurveline
          -843 328 callsubr
        </CharString>
        <CharString name="bracketleft.gujr">
          210 callsubr
          701.5 51 219 callgsubr
          649 vlineto
          12 7 8 13 1 vhcurveto
          89 10 rlineto
          46 vlineto
          -61 8 -78 4 -54 -1 -15 -14 rcurveline
          -798 328 callsubr
        </CharString>
        <CharString name="bracketright">
          210 callsubr
          746.5 52 367 callgsubr
          843 vlineto
          -16 15 -55 1 -78 -4 -61 -8 rlinecurve
          -47 vlineto
          90 -10 rlineto
          12 -1 7 -7 -13 vvcurveto
          -694 221 callsubr
        </CharString>
        <CharString name="bracketright.gujr">
          210 callsubr
          701.5 51 367 callgsubr
          798 vlineto
          -16 14 -55 1 -78 -4 -61 -8 rlinecurve
          -46 vlineto
          90 -10 rlineto
          12 -1 7 -6 callgsubr
          -649 221 callsubr
        </CharString>
        <CharString name="breve">
          -122 472 78 hstem
          36 292 vstem
          328 590 -72 callgsubr
        </CharString>
        <CharString name="brokenbar">
          -253 -114 806 hstem
          73 87 vstem
          73 345 rmoveto
          87 347 -87 hlineto
          -806 vmoveto
          87 346 -87 hlineto
          endchar
        </CharString>
        <CharString name="bullet">
          -148 136 189 hstem
          69 200 vstem
          269 230 220 callsubr
        </CharString>
        <CharString name="bullet.gujr">
          -70 168 189 hstem
          108 200 vstem
          308 262 220 callsubr
        </CharString>
        <CharString name="bulletoperator">
          -136 153 139 hstem
          105 142 vstem
          247 223 rmoveto
          42 -29 27 -43 -43 -27 -27 -42 -42 27 -28 43 43 29 28 42 vhcurveto
          endchar
        </CharString>
        <CharString name="c">
          279 callsubr
          hstem
          33 122 vstem
          -88 callgsubr
          endchar
        </CharString>
        <CharString name="cacute">
          279 callsubr
          228 -20 hstem
          33 122 vstem
          -88 callgsubr
          159 254 -83 callsubr
        </CharString>
        <CharString name="caron">
          -122 653 260 callgsubr
          39 297 hintmask 01100000
          300 654 rmoveto
          hintmask 10100000
          -23 callsubr
          hintmask 01100000
          243 callsubr
        </CharString>
        <CharString name="ccaron">
          279 callsubr
          228 260 callgsubr
          33 122 hintmask 11011000
          -88 callgsubr
          313 452 rmoveto
          hintmask 11101000
          -23 callsubr
          hintmask 11011000
          243 callsubr
        </CharString>
        <CharString name="ccedilla">
          -73 317 callgsubr
          23 72 310 52 hstemhm
          33 122 56 91 hintmask 10111100
          33 202 rmoveto
          -108 49 -85 105 -16 vhcurveto
          hintmask 11111100
          -21 -62 -75 callsubr
          hintmask 10111100
          7 23 rlineto
          78 57 36 52 19 hvcurveto
          -26 21 rlineto
          -18 -19 -34 -19 -43 hhcurveto
          -73 -32 52 105 108 33 45 48 19 14 -7 -8 10 hvcurveto
          8 -6 3 -8 4 -16 19 -69 rcurveline
          56 hlineto
          7 42 4 49 -3 45 rrcurveto
          17 -32 -54 13 -50 hhcurveto
          -126 -82 -83 -140 hvcurveto
          endchar
        </CharString>
        <CharString name="ccircumflex">
          279 callsubr
          216 -20 hstem
          33 122 vstem
          -88 callgsubr
          82 257 -69 callsubr
        </CharString>
        <CharString name="cdotaccent">
          279 callsubr
          51 122 hstemhm
          33 122 15 132 hintmask 11110000
          -88 callgsubr
          hintmask 11111000
          269 335 -71 callsubr
          endchar
        </CharString>
        <CharString name="cedilla">
          -122 -191 40 82 88 hstem
          178 91 vstem
          163 19 rmoveto
          -30 -88 -75 callsubr
          15 51 rlineto
          endchar
        </CharString>
        <CharString name="cent">
          -57 364 callsubr
          35 122 29 65 -31 66 hintmask 10111000
          35 -19 callsubr
        </CharString>
        <CharString name="cent.tf">
          -34 364 callsubr
          44 122 29 65 -31 66 hintmask 10111000
          44 -19 callsubr
        </CharString>
        <CharString name="circumflex">
          -122 641 -20 hstem
          33 298 vstem
          69 459 -69 callsubr
        </CharString>
        <CharString name="colon">
          -245 -7 125 179 123 hstem
          54 133 vstem
          187 358 rmoveto
          38 -26 24 -40 -41 -26 -24 -38 -37 26 -24 41 40 26 24 37 vhcurveto
          -302 vmoveto
          37 -26 25 -40 -41 -26 -25 -37 -38 26 -25 41 40 26 25 38 vhcurveto
          endchar
        </CharString>
        <CharString name="colon.gujr">
          -177 68 116 113 116 hstem
          92 125 vstem
          217 355 rmoveto
          35 -25 23 -37 -38 -25 -23 -35 -36 25 -22 38 37 25 22 36 vhcurveto
          -229 vmoveto
          36 -25 22 -37 -38 -25 -22 -36 -34 25 -24 38 37 25 24 34 vhcurveto
          endchar
        </CharString>
        <CharString name="comma">
          -261 -164 288 hstem
          95 87 vstem
          182 29 rmoveto
          61 -32 34 -43 -38 -26 -25 -37 -27 15 -17 15 -11 vhcurveto
          12 -9 10 -1 -21 vvcurveto
          -34 -26 -42 -37 -35 vhcurveto
          22 -29 rlineto
          67 37 61 71 85 vvcurveto
          endchar
        </CharString>
        <CharString name="comma.gujr">
          -197 -149 263 hstem
          132 79 vstem
          211 26 rmoveto
          57 -30 31 -39 -34 -24 -24 -33 -25 14 -15 14 -9 vhcurveto
          11 347 callgsubr
          21 -27 rlineto
          60 35 56 64 76 vvcurveto
          endchar
        </CharString>
        <CharString name="copyright">
          243 -46 46 97 65 257 52 99 45 hstem
          35 54 109 98 344 54 vstem
          363 97 rmoveto
          69 51 33 43 19 hvcurveto
          -24 22 rlineto
          -20 -19 -35 -13 -34 hhcurveto
          -61 -33 46 88 83 28 40 46 17 15 -7 -7 10 hvcurveto
          9 -7 2 -7 2 -9 15 -59 rcurveline
          51 hlineto
          7 40 2 40 -4 37 rrcurveto
          17 -24 -47 14 -48 hhcurveto
          -103 -76 -66 -124 -111 61 -73 104 hvcurveto
          -274 187 rmoveto
          168 114 118 162 162 113 -118 -168 -166 -114 -118 -161 -162 -114 118 166 vhcurveto
          -54 hmoveto
          -190 140 -140 190 190 139 140 190 191 -138 140 -191 -190 -140 -140 -191 vhcurveto
          endchar
        </CharString>
        <CharString name="currency">
          26 116 78 174 79 hstem
          91 83 162 85 vstem
          91 277 rmoveto
          -36 11 -32 19 -26 vhcurveto
          -81 -80 45 -47 83 84 rlineto
          -15 25 30 -9 32 hhcurveto
          32 30 9 16 25 hvcurveto
          84 -83 45 46 -82 81 rlineto
          20 28 12 35 37 vvcurveto
          36 -11 32 -19 26 vhcurveto
          82 81 -46 46 -84 -83 rlineto
          15 -25 -31 9 -32 hhcurveto
          -32 -30 -9 -16 -25 hvcurveto
          -84 83 -44 -46 83 -82 rlineto
          -20 -28 -12 -35 -37 vvcurveto
          164 -83 rmoveto
          -43 -38 38 48 45 28 43 51 44 39 -37 -51 -47 -26 -39 -55 hvcurveto
          endchar
        </CharString>
        <CharString name="d">
          14 -61 callgsubr
          endchar
        </CharString>
        <CharString name="dagger">
          -127 403 46.5 hstemhm
          120 120 -97.5 87.5 hintmask 10100000
          204 -92 rmoveto
          26 457 rlineto
          6 6 6 11 3 vhcurveto
          hintmask 11000000
          88 23 rlineto
          48 vlineto
          -100 -3 5 93 rlineto
          66 -120 -66 vlineto
          5 -93 -101 3 rlineto
          -48 vlineto
          hintmask 10100000
          88 -23 12 -3 5 -6 1 -11 rlinecurve
          25 -452 rlineto
          endchar
        </CharString>
        <CharString name="daggerdbl">
          -116 235 47 121 46.5 hstemhm
          124 121 -108.5 96.5 -81 74 hintmask 11001000
          210 -92 rmoveto
          16 286 rlineto
          6 5 6 12 3 vhcurveto
          97 26 rlineto
          49 vlineto
          hintmask 11010000
          -109 -4 4 80 rlineto
          hintmask 11100000
          1 11 5 6 11 3 88 23 rcurveline
          48 vlineto
          -100 -3 5 93 rlineto
          66 -121 -66 vlineto
          5 -93 -99 3 rlineto
          -48 vlineto
          hintmask 11010000
          87 -23 10 -2 5 -5 2 -8 rlinecurve
          5 -85 -109 4 rlineto
          -49 vlineto
          hintmask 11001000
          97 -26 9 -2 5 -5 3 -7 rlinecurve
          16 -287 rlineto
          endchar
        </CharString>
        <CharString name="dcaron">
          27 -61 callgsubr
          319 479 44 callsubr
        </CharString>
        <CharString name="dcroat">
          14 -53 callsubr
          309.5 51 60 49 116 -20 36 -20 hstemhm
          34 120 154 114 hintmask 10110111
          179 474 rmoveto
          129 -66 hlineto
          3 -17 -22 3 -21 hhcurveto
          -134 -80 -76 -147 -140 71 -59 93 51 39 21 30 28 hvcurveto
          -32 13 27 -18 41 hhcurveto
          29 36 9 5 17 hvcurveto
          hintmask 01111011
          44 vlineto
          -38 5 rlineto
          -12 1 -7 5 16 vvcurveto
          396 52 49 -52 116 vlineto
          hintmask 10110111
          -16 16 -49 -1 -68 -9 -49 -13 rlinecurve
          -45 vlineto
          51 -8 rlineto
          11 -2 6 -7 -12 vvcurveto
          -35 -129 vlineto
          59 -466 rmoveto
          -51 -33 39 110 hvcurveto
          120 1 40 37 58 hhcurveto
          20 21 -5 -8 14 hvcurveto
          -273 vlineto
          -13 -20 -25 -7 -25 hhcurveto
          endchar
        </CharString>
        <CharString name="degree">
          -150 336 61 146 62 hstem
          32 67 137 68 vstem
          167 336 rmoveto
          76 61 57 77 73 -58 62 -79 -74 -61 -58 -77 -73 61 -61 74 hvcurveto
          1 61 rmoveto
          -38 -31 34 39 41 28 32 40 39 30 -34 -39 -42 -28 -31 -40 hvcurveto
          endchar
        </CharString>
        <CharString name="dieresis">
          -122 479 115 hstem
          40 251 callsubr
          vstem
          152 537 -86 callsubr
        </CharString>
        <CharString name="divide">
          -66 36 109 46 69 46 108 hstem
          150 120 vstem
          379 191 rmoveto
          69 -338 -69 vlineto
          229 -101 rmoveto
          33 -24 22 -36 -36 -24 -22 -33 -32 24 -22 36 36 24 22 32 vhcurveto
          270 vmoveto
          33 -24 21 -36 -36 -24 -21 -33 -33 24 -21 36 36 24 21 33 vhcurveto
          endchar
        </CharString>
        <CharString name="dollar">
          -46 325 callsubr
          44 361 callgsubr
          410 -54 callsubr
        </CharString>
        <CharString name="dollar.tf">
          -34 325 callsubr
          49 361 callgsubr
          415 -54 callsubr
        </CharString>
        <CharString name="dotaccent">
          -122 476 122 hstem
          124 132 vstem
          256 537 -71 callsubr
          endchar
        </CharString>
        <CharString name="dotlessi">
          -27 callsubr
          -81 callsubr
          endchar
        </CharString>
        <CharString name="dotlessiogonek">
          -203 -189 63 126 226 callsubr
          hstemhm
          42 91 -43 114 hintmask 11101000
          243 -161 rmoveto
          hintmask 11110000
          223 callgsubr
          hintmask 11101000
          42 47 hlineto
          -41 7 -63 callgsubr
          333 vlineto
          -94 callgsubr
          hintmask 11110000
          217 callsubr
          hintmask 11101000
          35 40 11 17 27 hvcurveto
          endchar
        </CharString>
        <CharString name="dotlessj">
          312 callsubr
          hstem
          83 112 vstem
          180 424 -82 callsubr
          endchar
        </CharString>
        <CharString name="e">
          75 callsubr
          hstem
          34 116 141 105 vstem
          -105 callgsubr
          endchar
        </CharString>
        <CharString name="eacute">
          75 callsubr
          229 -20 hstem
          34 116 141 105 vstem
          -105 callgsubr
          -38 81 -83 callsubr
        </CharString>
        <CharString name="ebreve">
          75 callsubr
          48 78 hstem
          34 116 141 105 vstem
          -105 callgsubr
          144 215 -72 callgsubr
        </CharString>
        <CharString name="ecaron">
          75 callsubr
          229 260 callgsubr
          34 116 141 105 hintmask 11101110
          -105 callgsubr
          116 279 rmoveto
          hintmask 11110110
          -23 callsubr
          hintmask 11101110
          243 callsubr
        </CharString>
        <CharString name="ecircumflex">
          75 callsubr
          217 -20 hstem
          34 116 141 105 vstem
          -105 callgsubr
          -115 84 -69 callsubr
        </CharString>
        <CharString name="edieresis">
          75 callsubr
          55 115 hstemhm
          34 116 -68 251 callsubr
          -74 105 hintmask 11101001
          -105 callgsubr
          hintmask 11110110
          -32 162 -86 callsubr
        </CharString>
        <CharString name="edotaccent">
          75 callsubr
          52 122 hstemhm
          34 116 16 132 -7 105 hintmask 11101010
          -105 callgsubr
          hintmask 11111100
          72 162 -71 callsubr
          endchar
        </CharString>
        <CharString name="egrave">
          75 callsubr
          229 -20 hstem
          34 116 141 105 vstem
          -105 callgsubr
          -56 278 -28 callsubr
        </CharString>
        <CharString name="eight">
          -14 -11 51 422 50 hstemhm
          37 337 callsubr
          37 -45 callsubr
        </CharString>
        <CharString name="eight.tf">
          -34 -11 51 422 50 hstemhm
          27 337 callsubr
          27 -45 callsubr
        </CharString>
        <CharString name="ellipsis">
          179 -7 125 hstem
          44 134 88 133 88 134 cntrmask 01110000
          399 56 233 callgsubr
          222 hmoveto
          37 -26 25 -41 -40 -27 -25 -37 -38 27 -25 40 41 26 25 38 vhcurveto
          -443 hmoveto
          14 callsubr
        </CharString>
        <CharString name="ellipsis.gujr">
          253 -7 117 hstem
          85 125 97 125 96 125 vstem
          432 52 rmoveto
          35 -25 23 -38 -38 -24 -23 -35 -35 24 -24 38 38 25 24 35 vhcurveto
          221 hmoveto
          35 -24 23 -38 -38 -25 -23 -35 -35 25 -24 38 38 24 24 35 vhcurveto
          -443 hmoveto
          225 callsubr
        </CharString>
        <CharString name="emacron">
          75 callsubr
          70 67 hstemhm
          34 116 -56 259 -62 105 hintmask 11111010
          -105 callgsubr
          hintmask 11110100
          -132 119 149 callgsubr
        </CharString>
        <CharString name="emdash">
          327 179 75 hstem
          51 712 vstem
          51 179 rmoveto
          712 75 -712 hlineto
          endchar
        </CharString>
        <CharString name="emdash.gujr">
          327 207 89 hstem
          51 711 315 callgsubr
          681 hlineto
          21 -80 -9 -9 rlineto
          -681 hlineto
          endchar
        </CharString>
        <CharString name="endash">
          42 179 75 hstem
          51 426 vstem
          51 179 rmoveto
          426 75 -426 hlineto
          endchar
        </CharString>
        <CharString name="endash.gujr">
          42 207 89 hstem
          51 426 315 callgsubr
          397 hlineto
          20 -80 -9 -9 rlineto
          -396 hlineto
          endchar
        </CharString>
        <CharString name="eng">
          37 -188 52 -31 -21 25 -21 184 -55 callgsubr
          302.5 70 hstemhm
          90 114 145 115 hintmask 01011110
          464 8 rmoveto
          257 vlineto
          102 -29 56 -98 -53 -48 -16 -40 -37 vhcurveto
          -7 42 -17 15 -46 -1 -55 -7 -47 -48 callsubr
          -11 -2 vhcurveto
          -42 9 callsubr
          220 47 vlineto
          -30 7 rlineto
          -11 126 callgsubr
          15 24 27 8 25 hhcurveto
          51 18 -29 -73 hvcurveto
          -231 vlineto
          hintmask 10011110
          -70 -7 -35 -19 -19 vhcurveto
          -19 -21 -32 -6 -26 -5 rrcurveto
          hintmask 00111110
          3 -48 rlineto
          hintmask 01011110
          -3 18 21 -1 17 hhcurveto
          114 45 70 126 hvcurveto
          endchar
        </CharString>
        <CharString name="enspace">
          -59 endchar
        </CharString>
        <CharString name="eogonek">
          -56 -189 63 117 72 164 45 103 49 hstemhm
          34 116 28 89 24 105 vstemhm
          178 -115 rmoveto
          -49 43 -24 54 -1 vhcurveto
          35 39 11 17 27 hvcurveto
          -17 358 callgsubr
          -16 -4 -15 hhcurveto
          -26 -21 13 28 33 25 32 48 40 hvcurveto
          3 2 2 1 2 2 24 19 16 22 8 23 -28 21 rcurveline
          -31 -25 -41 -16 -42 hhcurveto
          hintmask 11111010
          -75 -34 45 117 hvcurveto
          2 241 vlineto
          4 17 1 22 17 vvcurveto
          86 -53 55 -107 -128 -74 -78 -142 -129 60 -84 131 vhcurveto
          hintmask 11111110
          12 11 1 1 10 hvcurveto
          -2 vlineto
          -33 -18 -47 -35 -53 vvcurveto
          hintmask 11111010
          48 490 rmoveto
          44 21 -35 -51 -7 0 -5 -1 -5 hvcurveto
          -138 hlineto
          76 7 27 27 40 hhcurveto
          endchar
        </CharString>
        <CharString name="equal">
          -43 108 73 84 74 hstem
          50 339 vstem
          389 265 rmoveto
          74 -339 -74 vlineto
          339 -157 rmoveto
          73 -339 -73 vlineto
          endchar
        </CharString>
        <CharString name="estimated">
          25 -11 52 186.5 49.5 173 48 hstem
          39 129 186 122 vstem
          168 413 rmoveto
          23 22 39 14 41 hhcurveto
          35 32 -9 -17 17 hvcurveto
          -147 -186 vlineto
          278 -239 rmoveto
          -23 42 rlineto
          -20 -29 -45 -19 -57 hhcurveto
          -53 -46 17 27 -25 hvcurveto
          143 vlineto
          304 -1 rlineto
          3 19 1 23 28 vvcurveto
          131 -3 -80 70 -120 hhcurveto
          -149 -85 -109 -144 -153 97 -103 149 65 59 20 29 37 hvcurveto
          endchar
        </CharString>
        <CharString name="eth">
          -13 -8 51 303 63 243 -20 22 -20 hstemhm
          34 123 156 119 hintmask 11011100
          432 237 rmoveto
          hintmask 11101100
          119 -46 115 -94 82 vhcurveto
          81 47 -34 52 rlineto
          hintmask 11011100
          -94 -64 -43 29 -51 22 -59 15 rlinecurve
          -20 -43 41 -21 35 -21 30 -24 rlinecurve
          -95 -58 33 -52 103 72 35 -37 24 -42 15 -49 rlinecurve
          21 -25 -33 9 -32 hhcurveto
          -75 -94 -54 -155 -135 70 -73 119 154 55 113 132 hvcurveto
          -198 -194 rmoveto
          -57 -20 63 93 113 30 34 48 29 24 -10 -19 18 hvcurveto
          5 -30 2 -32 -35 vvcurveto
          -126 -22 -51 -57 vhcurveto
          endchar
        </CharString>
        <CharString name="exclam">
          -234 -7 120 hstemhm
          60 131 -128 126 hintmask 10100000
          63 552 rmoveto
          29 -372 rlineto
          68 hlineto
          29 372 rlineto
          71 -126 vlineto
          hintmask 11000000
          128 -570 rmoveto
          36 -26 24 -39 -39 -27 -24 -36 -35 27 -25 39 39 26 25 35 vhcurveto
          endchar
        </CharString>
        <CharString name="exclam.gujr">
          -79 -7 110 408 -20 hstem
          145 117 vstem
          235 155 rmoveto
          27 294 rlineto
          62 -117 -62 vlineto
          27 -294 rlineto
          92 -107 rmoveto
          34 -25 21 -36 -36 -23 -21 -34 -33 23 -22 36 37 24 22 33 vhcurveto
          endchar
        </CharString>
        <CharString name="exclamdown">
          -246 -183 -21 510 119 hstemhm
          54 131 -128 126 hintmask 11010000
          183 -204 rmoveto
          71 vlineto
          -29 372 rlineto
          -68 hlineto
          -29 -372 rlineto
          -71 vlineto
          hintmask 11100000
          128 570 rmoveto
          36 -25 23 -39 -40 -27 -23 -36 -37 27 -23 40 39 25 23 37 vhcurveto
          endchar
        </CharString>
        <CharString name="f">
          -150 0 51 299 63 149 92 335 callsubr
          vstem
          93 438 rmoveto
          -24 vlineto
          -67 -12 -65 callgsubr
          266 47 vlineto
          -75 8 rlineto
          -12 1 -7 7 12 vvcurveto
          275 118 63 -118 64 vlineto
          69 27 15 51 1 vhcurveto
          19 33 -4 -6 29 hvcurveto
          22 64 rlineto
          21 -31 -36 17 -38 hhcurveto
          -92 -95 -110 -106 hvcurveto
          endchar
        </CharString>
        <CharString name="f_b">
          317 -8 48 -40 51 299 63 -57 69 137 92 -14 -20 hstemhm
          90 112 -109 108 184 112 153 120 hintmask 0110101011000000
          295 hmoveto
          47 vlineto
          -74 8 rlineto
          -13 15 callsubr
          120 63 vlineto
          hintmask 1010100111000000
          -121 64 hlineto
          66 45 19 50 31 203 callsubr
          hintmask 0101011011000000
          137 -69 60 -88 -47 -40 -17 -30 -29 vhcurveto
          262 vlineto
          hintmask 0110100111000000
          343 callgsubr
          -32 11 -30 hhcurveto
          -104 -107 -104 -106 hvcurveto
          -30 vlineto
          hintmask 0110101011000000
          -67 -12 -65 callgsubr
          vlineto
          hintmask 1001101011000000
          519 40 rmoveto
          -23 -17 5 7 -14 hvcurveto
          284 vlineto
          13 19 23 7 23 hhcurveto
          57 32 -37 -114 -1 hvcurveto
          -116 -2 -33 -49 -64 hhcurveto
          endchar
        </CharString>
        <CharString name="f_f">
          150 0 51 299 63 128 91 -70 92 93 callsubr
          hintmask 11011100
          284 hmoveto
          47 vlineto
          -63 8 rlineto
          -13 15 callsubr
          191 -275 vlineto
          -13 316 callgsubr
          -38 9 callsubr
          262 47 vlineto
          -76 8 rlineto
          -12 15 callsubr
          117 63 vlineto
          hintmask 11011010
          -118 64 hlineto
          69 27 15 52 1 vhcurveto
          18 34 -4 -6 29 hvcurveto
          21 67 rlineto
          19 -30 -37 16 -37 hhcurveto
          -92 -93 -110 -106 hvcurveto
          -25 -194 vlineto
          hintmask 11101100
          -78 callgsubr
          endchar
        </CharString>
        <CharString name="f_f_b">
          620 -8 48 -40 51 299 63 -57 69 116 91 -70 92 -14 -20 93 callsubr
          184 112 152 121 hintmask 0110010110110000
          284 hmoveto
          47 vlineto
          -63 8 rlineto
          -13 15 callsubr
          191 -275 vlineto
          -13 -6 -6 24 callgsubr
          263 47 vlineto
          -75 8 rlineto
          -12 15 callsubr
          119 63 vlineto
          hintmask 1010010101110000
          -120 64 hlineto
          66 45 19 49 32 203 callsubr
          hintmask 0101001110110000
          370 callgsubr
          vhcurveto
          261 vlineto
          hintmask 0110010101110000
          343 callgsubr
          -33 11 -30 hhcurveto
          -102 -108 -104 -106 hvcurveto
          -31 -194 vlineto
          hintmask 0110100110110000
          -78 callgsubr
          hintmask 1001010110110000
          821 40 rmoveto
          -22 -17 5 7 -14 hvcurveto
          284 vlineto
          13 19 22 7 24 hhcurveto
          57 32 -37 -114 -2 hvcurveto
          -116 -1 -33 -49 -65 hhcurveto
          endchar
        </CharString>
        <CharString name="f_f_h">
          658 56 callsubr
          -60 70 118 91 -70 92 -15 -20 93 callsubr
          193 111 146 113 hintmask 1100101101100000
          -27 callgsubr
          hintmask 1100101011100000
          -120 242 callgsubr
          32 33 65 callsubr
          217 47 vlineto
          -30 7 rlineto
          -12 4 -5 5 13 vvcurveto
          hintmask 1010011101100000
          254 vlineto
          16 25 27 7 26 hhcurveto
          50 18 164 callgsubr
          -6 -5 -11 -4 vhcurveto
          -30 9 callsubr
          220 47 vlineto
          -42 7 rlineto
          -11 2 -7 7 13 296 callsubr
          101 -28 57 -98 -51 -46 -15 -36 -36 vhcurveto
          267 vlineto
          hintmask 1100101011100000
          59 callsubr
          hintmask 1101001101100000
          -78 callgsubr
          endchar
        </CharString>
        <CharString name="f_f_k">
          637 56 callsubr
          -44 44 128 91 -70 92 -15 -20 93 callsubr
          193 111 75 211 hintmask 1100101101000000
          -27 callgsubr
          hintmask 1100101011000000
          -120 242 callgsubr
          32 33 -4 -10 30 vhcurveto
          -472 vlineto
          -12 -7 -8 -11 -2 vhcurveto
          -41 9 callsubr
          228 47 vlineto
          -40 7 -63 callgsubr
          59 vlineto
          55 55 8 -14 8 -16 9 -17 rlinecurve
          35 -75 rlineto
          -37 18 13 -31 23 hhcurveto
          138 47 hlineto
          -41 11 -13 3 -7 4 -6 14 rlinecurve
          -64 116 -16 30 -13 21 -16 20 rlinecurve
          hintmask 1010101101100000
          76 76 11 10 8 3 17 3 rlinecurve
          43 11 rlineto
          hintmask 1100101101100000
          44 -211 vlineto
          hintmask 1010011101100000
          -44 vlineto
          69 -12 -144 -154 rlineto
          436 vlineto
          hintmask 1100101011000000
          59 callsubr
          hintmask 1101001101000000
          -78 callgsubr
          endchar
        </CharString>
        <CharString name="f_f_l">
          404 56 callsubr
          128 91 -70 92 -15 -20 93 callsubr
          193 111 hintmask 1101011010000000
          -27 callgsubr
          hintmask 1101010110000000
          -120 242 callgsubr
          32 33 65 callsubr
          235 47 vlineto
          -47 7 -63 callgsubr
          hintmask 1100111010000000
          563 vlineto
          hintmask 1101010110000000
          59 callsubr
          hintmask 1110011010000000
          -78 callgsubr
          endchar
        </CharString>
        <CharString name="f_h">
          355 56 callsubr
          -60 70 139 157 callsubr
          145 114 hintmask 1101010110000000
          285 hmoveto
          47 vlineto
          -64 8 rlineto
          -13 15 callsubr
          120 63 vlineto
          hintmask 1101001110000000
          -121 242 callgsubr
          31 34 65 callsubr
          217 47 vlineto
          -29 7 rlineto
          -12 4 -5 5 13 vvcurveto
          hintmask 1010110110000000
          254 vlineto
          16 24 27 7 26 hhcurveto
          50 18 164 callgsubr
          -6 -5 -11 -4 vhcurveto
          -29 9 callsubr
          219 47 vlineto
          -42 7 316 callsubr
          13 296 callsubr
          101 -29 57 -97 -52 -45 -15 -35 -36 vhcurveto
          266 vlineto
          hintmask 1101001110000000
          74 callsubr
          hintmask 1101010110000000
          68 callsubr
        </CharString>
        <CharString name="f_k">
          335 56 callsubr
          -44 44 149 157 callsubr
          75 210 hintmask 1101010100000000
          285 hmoveto
          47 vlineto
          -64 8 rlineto
          -13 15 callsubr
          120 63 vlineto
          hintmask 1101001100000000
          -121 242 callgsubr
          31 34 -4 -10 30 vhcurveto
          -472 vlineto
          -12 -7 -8 -11 -2 vhcurveto
          -41 9 callsubr
          228 47 vlineto
          -40 7 167 callsubr
          13 vvcurveto
          60 vlineto
          54 54 9 -14 7 -16 9 -17 rlinecurve
          35 -75 rlineto
          -37 18 13 -31 23 hhcurveto
          138 47 hlineto
          -41 11 -13 3 -6 4 -7 14 rlinecurve
          -64 116 -16 30 -12 21 -17 20 rlinecurve
          hintmask 1011010110000000
          77 76 10 10 8 3 18 3 rlinecurve
          42 11 rlineto
          hintmask 1101010110000000
          44 -210 vlineto
          hintmask 1010110110000000
          -44 vlineto
          68 -12 -143 -153 rlineto
          435 vlineto
          hintmask 1101001100000000
          74 callsubr
          hintmask 1101010100000000
          68 callsubr
        </CharString>
        <CharString name="f_l">
          101 56 callsubr
          149 157 callsubr
          hintmask 11101010
          285 hmoveto
          47 vlineto
          -64 8 rlineto
          -13 15 callsubr
          120 63 vlineto
          hintmask 11100110
          -121 242 callgsubr
          31 34 65 callsubr
          235 47 vlineto
          -47 7 316 callsubr
          13 vvcurveto
          hintmask 11011010
          563 vlineto
          hintmask 11100110
          74 callsubr
          hintmask 11101010
          68 callsubr
        </CharString>
        <CharString name="five">
          -54 -11 70 197 70 92 83 hstem
          273 124 vstem
          56 11 callgsubr
        </CharString>
        <CharString name="five.tf">
          -34 -11 70 197 70 92 83 hstem
          283 124 vstem
          66 11 callgsubr
        </CharString>
        <CharString name="four">
          -30 0 150 -59 59 332 22 hstemhm
          252 106 hintmask 01110000
          34 31 callsubr
        </CharString>
        <CharString name="four.dnom">
          -101 0 117 -49 49 228 16 hstemhm
          207 81 hintmask 01110000
          50 68 rmoveto
          157 hlineto
          hintmask 10110000
          -68 81 vlineto
          hintmask 01110000
          350 callsubr
          hintmask 10110000
          88 callsubr
          hintmask 01110000
          186 callsubr
        </CharString>
        <CharString name="four.numr">
          -101 295 49 228 -20 20 16 hstemhm
          210 81 hintmask 11010000
          53 61 callgsubr
        </CharString>
        <CharString name="four.tf">
          -34 0 150 -59 59 332 22 hstemhm
          250 106 hintmask 01110000
          32 31 callsubr
        </CharString>
        <CharString name="foursuperior">
          -112 295 49 228 -20 20 16 hstemhm
          205 81 hintmask 11010000
          48 61 callgsubr
        </CharString>
        <CharString name="fraction">
          147 callgsubr
        </CharString>
        <CharString name="g">
          35 callgsubr
          259 callgsubr
          hintmask 1110100010100000
          -30 callgsubr
          hintmask 1111000101000000
          75 callgsubr
          hintmask 1110010101000000
          79 vlineto
          hintmask 1110100101000000
          -38 callsubr
          hintmask 1110100011000000
          92 callgsubr
          hintmask 1110101001000000
          92 callsubr
          hintmask 1110100010100000
          147 96 64 99 hvcurveto
          hintmask 1110101000100000
          -50 callgsubr
          hintmask 1110100101000000
          -2 callsubr
          endchar
        </CharString>
        <CharString name="gbreve">
          35 callgsubr
          73 78 -75 callgsubr
          214 308 -72 callgsubr
        </CharString>
        <CharString name="gcircumflex">
          35 callgsubr
          242 -20 -75 callgsubr
          -45 177 -69 callsubr
        </CharString>
        <CharString name="gcommaaccent">
          35 callgsubr
          162 callgsubr
          20 79 44 111 -62 115 hintmask 1110100010010000
          -30 callgsubr
          hintmask 1111000100100000
          75 callgsubr
          hintmask 1110010100100000
          79 vlineto
          hintmask 1110100100100000
          -38 callsubr
          hintmask 1110100010100000
          92 callgsubr
          hintmask 1110101000100000
          92 callsubr
          hintmask 1110100010010000
          147 96 64 99 hvcurveto
          hintmask 1110101000010000
          -50 callgsubr
          hintmask 1110100100100000
          -2 callsubr
          hintmask 1110100101100000
          10 265 97 callgsubr
        </CharString>
        <CharString name="gdotaccent">
          35 callgsubr
          77 122 162 callgsubr
          20 132 -9 111 -62 115 hintmask 1110100001001000
          -30 callgsubr
          hintmask 1111000010010000
          75 callgsubr
          hintmask 1110010010010000
          79 vlineto
          hintmask 1110100010010000
          -38 callsubr
          hintmask 1110100001010000
          92 callgsubr
          hintmask 1110100100010000
          92 callsubr
          hintmask 1110100001001000
          147 96 64 99 hvcurveto
          hintmask 1110100100001000
          -50 callgsubr
          hintmask 1110100010010000
          -2 callsubr
          hintmask 1110101010100000
          142 255 -71 callsubr
          endchar
        </CharString>
        <CharString name="germandbls">
          103 -11 47 -36 -55 callgsubr
          -50.5 138 276 -20 189 71 hstemhm
          90 113 77 108 -9 115 -36 112 hintmask 1001111010000000
          570 120 rmoveto
          62 -37 33 -65 37 vhcurveto
          -50 29 -30 18 32 vvcurveto
          35 34 25 53 12 vhcurveto
          hintmask 0101110100000000
          12 32 7 33 31 vvcurveto
          100 -1 -82 55 -89 hhcurveto
          -124 -108 -102 -115 hvcurveto
          -23 vlineto
          -64 -12 rlineto
          -44 vlineto
          64 -10 rlineto
          -273 vlineto
          -12 -52 callgsubr
          -41 9 callsubr
          172 469 vlineto
          83 33 31 52 60 31 -42 -62 -19 -3 -21 -6 -21 vhcurveto
          hintmask 1001111010000000
          -49 -23 -41 -38 -59 vvcurveto
          -57 39 -31 50 -29 vhcurveto
          51 -29 38 -22 -42 vvcurveto
          -32 -25 -20 -33 -22 -17 9 9 -11 vhcurveto
          hintmask 0011111000000000
          -9 7 -3 6 -5 17 -15 54 rcurveline
          -57 hlineto
          hintmask 1001110000000000
          -4 -21 -2 -23 -24 vvcurveto
          -16 1 -18 2 -16 vhcurveto
          -15 35 52 -16 55 hhcurveto
          hintmask 1001111010000000
          97 73 45 86 hvcurveto
          endchar
        </CharString>
        <CharString name="grave">
          -122 653 -20 hstem
          63 201 vstem
          128 653 -28 callsubr
        </CharString>
        <CharString name="gravecomb">
          653 -20 hstem
          -119 201 vstem
          -54 653 -28 callsubr
        </CharString>
        <CharString name="gravecomb.case">
          646 -20 hstem
          -138 232 vstem
          -85 773 -4 callsubr
          endchar
        </CharString>
        <CharString name="greater">
          -76 37 372 hstem
          42 339 vstem
          381 192 rmoveto
          61 vlineto
          -306 156 -33 -72 246 -114 -246 -114 33 -72 rlineto
          endchar
        </CharString>
        <CharString name="greaterequal">
          -57 0 71 hstem
          48 339 vstem
          387 264 rmoveto
          60 vlineto
          -306 145 -30 -73 245 -103 -245 -103 30 -71 rlineto
          299 -119 rmoveto
          71 -332 -71 vlineto
          endchar
        </CharString>
        <CharString name="guillemotleft">
          49 417 -20 hstem
          30 473 vstem
          256 194 81 callgsubr
          -226 -56 81 callgsubr
          endchar
        </CharString>
        <CharString name="guillemotleft.gujr">
          147 59 387 hstem
          80 472 vstem
          306 223 81 callsubr
          -226 -56 81 callsubr
          endchar
        </CharString>
        <CharString name="guillemotright">
          45 417 -20 hstem
          32 469 vstem
          501 194 104 callsubr
          -9 164 104 callsubr
          endchar
        </CharString>
        <CharString name="guillemotright.gujr">
          143 59 387 hstem
          82 467 vstem
          549 223 103 callsubr
          -9 164 103 callsubr
          endchar
        </CharString>
        <CharString name="guilsinglleft">
          -177 417 -20 hstem
          30 247 vstem
          30 194 81 callgsubr
          endchar
        </CharString>
        <CharString name="guilsinglleft.gujr">
          -78 59 387 hstem
          79 246 vstem
          79 223 81 callsubr
          endchar
        </CharString>
        <CharString name="guilsinglright">
          -177 417 -20 hstem
          32 247 vstem
          279 194 104 callsubr
          endchar
        </CharString>
        <CharString name="guilsinglright.gujr">
          -78 59 387 hstem
          83 246 vstem
          329 223 103 callsubr
          endchar
        </CharString>
        <CharString name="h">
          -56 callgsubr
          endchar
        </CharString>
        <CharString name="hbar">
          42 0 -55 callgsubr
          293.5 69 59 48 119 -20 36 -20 hstemhm
          80 113 147 113 hintmask 11101110
          18 472 rmoveto
          62 -397 hlineto
          -12 -7 -7 24 callgsubr
          219 47 vlineto
          -29 7 rlineto
          -12 212 callsubr
          245 vlineto
          16 24 28 7 26 hhcurveto
          50 19 -30 -72 hvcurveto
          -166 vlineto
          -13 -7 -5 -11 -4 vhcurveto
          -29 9 callsubr
          219 47 vlineto
          -41 7 -63 callgsubr
          180 vlineto
          100 -29 57 -97 -52 -46 -15 -35 -36 vhcurveto
          109 121 48 -121 vlineto
          hintmask 11110110
          119 vlineto
          hintmask 11101110
          -16 16 -48 -1 -68 -6 -48 193 callgsubr
          -41 -62 vlineto
          endchar
        </CharString>
        <CharString name="hcircumflex">
          -56 callgsubr
          17 678 -68 callgsubr
          86 callsubr
        </CharString>
</ttFont>
